M48
; DRILL file {KiCad (6.0.1)} date Wed Mar  9 16:16:55 2022
; FORMAT={-:-/ absolute / inch / decimal}
; #@! TF.CreationDate,2022-03-09T16:16:55-05:00
; #@! TF.GenerationSoftware,Kicad,Pcbnew,(6.0.1)
; #@! TF.FileFunction,MixedPlating,1,2
FMAT,2
INCH
; #@! TA.AperFunction,Plated,PTH,ComponentDrill
T1C0.0354
; #@! TA.AperFunction,Plated,PTH,ComponentDrill
T2C0.0382
; #@! TA.AperFunction,Plated,PTH,ComponentDrill
T3C0.0394
; #@! TA.AperFunction,Plated,PTH,ComponentDrill
T4C0.0811
; #@! TA.AperFunction,NonPlated,NPTH,ComponentDrill
T5C0.0827
%
G90
G05
T1
X4.585Y-4.48
X4.585Y-4.565
X4.585Y-4.65
X4.585Y-4.735
T2
X4.535Y-3.675
X4.635Y-3.675
X5.155Y-3.675
X5.255Y-3.675
X5.775Y-3.675
X5.875Y-3.675
T3
X6.095Y-3.975
X6.095Y-3.975
X6.095Y-4.115
X6.095Y-4.115
X6.095Y-4.255
X6.095Y-4.255
X6.095Y-4.395
X6.095Y-4.395
X6.095Y-4.535
X6.095Y-4.535
X6.095Y-4.675
X6.095Y-4.675
X6.095Y-4.815
X6.095Y-4.815
T4
X4.435Y-3.475
X4.835Y-3.475
X5.055Y-3.475
X5.455Y-3.475
X5.675Y-3.475
X6.075Y-3.475
T5
X4.34Y-3.91
X4.34Y-4.85
T0
M30
