%TF.GenerationSoftware,KiCad,Pcbnew,(6.0.1)*%
%TF.CreationDate,2022-03-09T16:15:59-05:00*%
%TF.ProjectId,pcb_arduino,7063625f-6172-4647-9569-6e6f2e6b6963,rev?*%
%TF.SameCoordinates,Original*%
%TF.FileFunction,Copper,L1,Top*%
%TF.FilePolarity,Positive*%
%FSLAX46Y46*%
G04 Gerber Fmt 4.6, Leading zero omitted, Abs format (unit mm)*
G04 Created by KiCad (PCBNEW (6.0.1)) date 2022-03-09 16:15:59*
%MOMM*%
%LPD*%
G01*
G04 APERTURE LIST*
%TA.AperFunction,ComponentPad*%
%ADD10R,1.800000X1.800000*%
%TD*%
%TA.AperFunction,ComponentPad*%
%ADD11C,1.800000*%
%TD*%
%TA.AperFunction,SMDPad,CuDef*%
%ADD12R,1.070000X3.270000*%
%TD*%
%TA.AperFunction,ComponentPad*%
%ADD13R,1.700000X1.700000*%
%TD*%
%TA.AperFunction,ComponentPad*%
%ADD14C,3.076000*%
%TD*%
%TA.AperFunction,ComponentPad*%
%ADD15C,1.478000*%
%TD*%
%TA.AperFunction,ComponentPad*%
%ADD16R,1.478000X1.478000*%
%TD*%
%TA.AperFunction,Conductor*%
%ADD17C,0.200000*%
%TD*%
%TA.AperFunction,Conductor*%
%ADD18C,0.250000*%
%TD*%
G04 APERTURE END LIST*
D10*
%TO.P,LED,1*%
%TO.N,N/C*%
X116459000Y-120269000D03*
D11*
%TO.P,LED,2*%
X116459000Y-118110000D03*
%TO.P,LED,3*%
X116459000Y-115951000D03*
%TO.P,LED,4*%
X116459000Y-113792000D03*
%TD*%
D12*
%TO.P,R,1*%
%TO.N,N/C*%
X125342000Y-121539000D03*
%TO.P,R,2*%
X131452000Y-121539000D03*
%TD*%
D13*
%TO.P,PIN 50,1*%
%TO.N,N/C*%
X154813000Y-118745000D03*
X154813000Y-118745000D03*
%TD*%
D14*
%TO.P,EEG,S2*%
%TO.N,N/C*%
X122809000Y-88265000D03*
%TO.P,EEG,S1*%
X112649000Y-88265000D03*
D15*
%TO.P,EEG,2*%
X115189000Y-93345000D03*
D16*
%TO.P,EEG,1*%
X117729000Y-93345000D03*
%TD*%
D13*
%TO.P,PIN 6,1*%
%TO.N,N/C*%
X154813000Y-108077000D03*
X154813000Y-108077000D03*
%TD*%
D12*
%TO.P,R,1*%
%TO.N,N/C*%
X125342000Y-116713000D03*
%TO.P,R,2*%
X131452000Y-116713000D03*
%TD*%
D16*
%TO.P,Footswitch,1*%
%TO.N,N/C*%
X133477000Y-93345000D03*
D15*
%TO.P,Footswitch,2*%
X130937000Y-93345000D03*
D14*
%TO.P,Footswitch,S1*%
X128397000Y-88265000D03*
%TO.P,Footswitch,S2*%
X138557000Y-88265000D03*
%TD*%
D13*
%TO.P,PIN 53,1*%
%TO.N,N/C*%
X154813000Y-115189000D03*
X154813000Y-115189000D03*
%TD*%
%TO.P,GND,1*%
%TO.N,N/C*%
X154813000Y-100965000D03*
X154813000Y-100965000D03*
%TD*%
%TO.P,PIN 7,1*%
%TO.N,N/C*%
X154813000Y-111633000D03*
X154813000Y-111633000D03*
%TD*%
%TO.P,PIN 52,1*%
%TO.N,N/C*%
X154813000Y-122301000D03*
X154813000Y-122301000D03*
%TD*%
D12*
%TO.P,R,1*%
%TO.N,N/C*%
X125342000Y-111887000D03*
%TO.P,R,2*%
X131452000Y-111887000D03*
%TD*%
D13*
%TO.P,PIN 5,1*%
%TO.N,N/C*%
X154813000Y-104521000D03*
X154813000Y-104521000D03*
%TD*%
D16*
%TO.P,Portasync,1*%
%TO.N,N/C*%
X149225000Y-93345000D03*
D15*
%TO.P,Portasync,2*%
X146685000Y-93345000D03*
D14*
%TO.P,Portasync,S1*%
X144145000Y-88265000D03*
%TO.P,Portasync,S2*%
X154305000Y-88265000D03*
%TD*%
D17*
%TO.N,*%
X143383000Y-117475000D02*
X142621000Y-116713000D01*
X144907000Y-111633000D02*
X154813000Y-111633000D01*
X141859000Y-121539000D02*
X142621000Y-122301000D01*
X120269000Y-109093000D02*
X142367000Y-109093000D01*
D18*
X120777000Y-120269000D02*
X122047000Y-121539000D01*
D17*
X133477000Y-105537000D02*
X136017000Y-108077000D01*
D18*
X122047000Y-121539000D02*
X125342000Y-121539000D01*
D17*
X142621000Y-116713000D02*
X131452000Y-116713000D01*
X146685000Y-115189000D02*
X154813000Y-115189000D01*
X131452000Y-121539000D02*
X141859000Y-121539000D01*
D18*
X122809000Y-116713000D02*
X125342000Y-116713000D01*
D17*
X149225000Y-102997000D02*
X150749000Y-104521000D01*
D18*
X116459000Y-115951000D02*
X122047000Y-115951000D01*
D17*
X150749000Y-118745000D02*
X154813000Y-118745000D01*
X143383000Y-111887000D02*
X146685000Y-115189000D01*
D18*
X122047000Y-115951000D02*
X122809000Y-116713000D01*
D17*
X142367000Y-109093000D02*
X144907000Y-111633000D01*
X131452000Y-111887000D02*
X143383000Y-111887000D01*
D18*
X116459000Y-120269000D02*
X120777000Y-120269000D01*
D17*
X133477000Y-93345000D02*
X133477000Y-105537000D01*
X149479000Y-117475000D02*
X143383000Y-117475000D01*
X117729000Y-106553000D02*
X120269000Y-109093000D01*
X117729000Y-93345000D02*
X117729000Y-106553000D01*
X149225000Y-93345000D02*
X149225000Y-102997000D01*
X154305000Y-114681000D02*
X154813000Y-115189000D01*
X142621000Y-122301000D02*
X154813000Y-122301000D01*
X150749000Y-104521000D02*
X154813000Y-104521000D01*
D18*
X122936000Y-113792000D02*
X124841000Y-111887000D01*
X116459000Y-113792000D02*
X122936000Y-113792000D01*
D17*
X150749000Y-118745000D02*
X149479000Y-117475000D01*
X136017000Y-108077000D02*
X154813000Y-108077000D01*
D18*
X124841000Y-111887000D02*
X125342000Y-111887000D01*
%TD*%
%TA.AperFunction,NonConductor*%
G36*
X142130882Y-109721502D02*
G01*
X142151856Y-109738405D01*
X143472684Y-111059233D01*
X143506710Y-111121545D01*
X143501645Y-111192360D01*
X143459098Y-111249196D01*
X143392578Y-111274007D01*
X143389567Y-111274115D01*
X143383000Y-111273250D01*
X143351307Y-111277422D01*
X143334864Y-111278500D01*
X132621500Y-111278500D01*
X132553379Y-111258498D01*
X132506886Y-111204842D01*
X132495500Y-111152500D01*
X132495500Y-110203866D01*
X132488745Y-110141684D01*
X132437615Y-110005295D01*
X132360998Y-109903065D01*
X132336150Y-109836558D01*
X132351203Y-109767176D01*
X132401377Y-109716946D01*
X132461824Y-109701500D01*
X142062761Y-109701500D01*
X142130882Y-109721502D01*
G37*
%TD.AperFunction*%
%TA.AperFunction,NonConductor*%
G36*
X157676121Y-80919002D02*
G01*
X157722614Y-80972658D01*
X157734000Y-81025000D01*
X157734000Y-125096000D01*
X157713998Y-125164121D01*
X157660342Y-125210614D01*
X157608000Y-125222000D01*
X108453000Y-125222000D01*
X108384879Y-125201998D01*
X108338386Y-125148342D01*
X108327000Y-125096000D01*
X108327000Y-123244568D01*
X108673382Y-123244568D01*
X108702208Y-123493699D01*
X108703587Y-123498573D01*
X108703588Y-123498577D01*
X108753963Y-123676598D01*
X108770494Y-123735017D01*
X108772628Y-123739592D01*
X108772630Y-123739599D01*
X108874347Y-123957731D01*
X108876484Y-123962313D01*
X108879326Y-123966494D01*
X108879326Y-123966495D01*
X109014605Y-124165552D01*
X109014608Y-124165556D01*
X109017451Y-124169739D01*
X109020928Y-124173416D01*
X109020929Y-124173417D01*
X109121238Y-124279491D01*
X109189767Y-124351959D01*
X109193793Y-124355037D01*
X109193794Y-124355038D01*
X109384981Y-124501212D01*
X109384985Y-124501215D01*
X109389001Y-124504285D01*
X109610026Y-124622797D01*
X109614807Y-124624443D01*
X109614811Y-124624445D01*
X109840538Y-124702169D01*
X109847156Y-124704448D01*
X109950689Y-124722331D01*
X110090380Y-124746460D01*
X110090386Y-124746461D01*
X110094290Y-124747135D01*
X110098251Y-124747315D01*
X110098252Y-124747315D01*
X110122931Y-124748436D01*
X110122950Y-124748436D01*
X110124350Y-124748500D01*
X110299015Y-124748500D01*
X110301523Y-124748298D01*
X110301528Y-124748298D01*
X110480944Y-124733863D01*
X110480949Y-124733862D01*
X110485985Y-124733457D01*
X110490893Y-124732252D01*
X110490896Y-124732251D01*
X110724625Y-124674841D01*
X110729539Y-124673634D01*
X110734191Y-124671659D01*
X110734195Y-124671658D01*
X110955741Y-124577617D01*
X110955742Y-124577617D01*
X110960396Y-124575641D01*
X111172615Y-124442000D01*
X111360738Y-124276147D01*
X111519924Y-124082351D01*
X111646078Y-123865596D01*
X111735955Y-123631461D01*
X111737386Y-123624615D01*
X111786206Y-123390921D01*
X111787241Y-123385967D01*
X111798618Y-123135432D01*
X111769792Y-122886301D01*
X111730810Y-122748539D01*
X111702884Y-122649852D01*
X111702883Y-122649850D01*
X111701506Y-122644983D01*
X111699372Y-122640408D01*
X111699370Y-122640401D01*
X111597653Y-122422269D01*
X111597651Y-122422265D01*
X111595516Y-122417687D01*
X111592674Y-122413505D01*
X111457395Y-122214448D01*
X111457392Y-122214444D01*
X111454549Y-122210261D01*
X111353925Y-122103853D01*
X111285713Y-122031721D01*
X111282233Y-122028041D01*
X111278206Y-122024962D01*
X111087019Y-121878788D01*
X111087015Y-121878785D01*
X111082999Y-121875715D01*
X110861974Y-121757203D01*
X110857193Y-121755557D01*
X110857189Y-121755555D01*
X110629633Y-121677201D01*
X110624844Y-121675552D01*
X110509304Y-121655595D01*
X110381620Y-121633540D01*
X110381614Y-121633539D01*
X110377710Y-121632865D01*
X110373749Y-121632685D01*
X110373748Y-121632685D01*
X110349069Y-121631564D01*
X110349050Y-121631564D01*
X110347650Y-121631500D01*
X110172985Y-121631500D01*
X110170477Y-121631702D01*
X110170472Y-121631702D01*
X109991056Y-121646137D01*
X109991051Y-121646138D01*
X109986015Y-121646543D01*
X109981107Y-121647748D01*
X109981104Y-121647749D01*
X109845268Y-121681114D01*
X109742461Y-121706366D01*
X109737809Y-121708341D01*
X109737805Y-121708342D01*
X109617061Y-121759595D01*
X109511604Y-121804359D01*
X109507320Y-121807057D01*
X109310109Y-121931247D01*
X109299385Y-121938000D01*
X109111262Y-122103853D01*
X108952076Y-122297649D01*
X108825922Y-122514404D01*
X108736045Y-122748539D01*
X108735012Y-122753485D01*
X108735010Y-122753491D01*
X108701547Y-122913672D01*
X108684759Y-122994033D01*
X108673382Y-123244568D01*
X108327000Y-123244568D01*
X108327000Y-99368568D01*
X108673382Y-99368568D01*
X108702208Y-99617699D01*
X108703587Y-99622573D01*
X108703588Y-99622577D01*
X108742169Y-99758919D01*
X108770494Y-99859017D01*
X108772628Y-99863592D01*
X108772630Y-99863599D01*
X108869009Y-100070283D01*
X108876484Y-100086313D01*
X108879326Y-100090494D01*
X108879326Y-100090495D01*
X109014605Y-100289552D01*
X109014608Y-100289556D01*
X109017451Y-100293739D01*
X109020928Y-100297416D01*
X109020929Y-100297417D01*
X109121238Y-100403491D01*
X109189767Y-100475959D01*
X109193793Y-100479037D01*
X109193794Y-100479038D01*
X109384981Y-100625212D01*
X109384985Y-100625215D01*
X109389001Y-100628285D01*
X109610026Y-100746797D01*
X109614807Y-100748443D01*
X109614811Y-100748445D01*
X109840538Y-100826169D01*
X109847156Y-100828448D01*
X109950689Y-100846331D01*
X110090380Y-100870460D01*
X110090386Y-100870461D01*
X110094290Y-100871135D01*
X110098251Y-100871315D01*
X110098252Y-100871315D01*
X110122931Y-100872436D01*
X110122950Y-100872436D01*
X110124350Y-100872500D01*
X110299015Y-100872500D01*
X110301523Y-100872298D01*
X110301528Y-100872298D01*
X110480944Y-100857863D01*
X110480949Y-100857862D01*
X110485985Y-100857457D01*
X110490893Y-100856252D01*
X110490896Y-100856251D01*
X110724625Y-100798841D01*
X110729539Y-100797634D01*
X110734191Y-100795659D01*
X110734195Y-100795658D01*
X110955741Y-100701617D01*
X110955742Y-100701617D01*
X110960396Y-100699641D01*
X111172615Y-100566000D01*
X111360738Y-100400147D01*
X111519924Y-100206351D01*
X111646078Y-99989596D01*
X111735955Y-99755461D01*
X111753857Y-99669771D01*
X111786206Y-99514921D01*
X111787241Y-99509967D01*
X111798618Y-99259432D01*
X111769792Y-99010301D01*
X111730810Y-98872539D01*
X111702884Y-98773852D01*
X111702883Y-98773850D01*
X111701506Y-98768983D01*
X111699372Y-98764408D01*
X111699370Y-98764401D01*
X111597653Y-98546269D01*
X111597651Y-98546265D01*
X111595516Y-98541687D01*
X111592674Y-98537505D01*
X111457395Y-98338448D01*
X111457392Y-98338444D01*
X111454549Y-98334261D01*
X111353925Y-98227853D01*
X111285713Y-98155721D01*
X111282233Y-98152041D01*
X111278206Y-98148962D01*
X111087019Y-98002788D01*
X111087015Y-98002785D01*
X111082999Y-97999715D01*
X110861974Y-97881203D01*
X110857193Y-97879557D01*
X110857189Y-97879555D01*
X110629633Y-97801201D01*
X110624844Y-97799552D01*
X110521311Y-97781669D01*
X110381620Y-97757540D01*
X110381614Y-97757539D01*
X110377710Y-97756865D01*
X110373749Y-97756685D01*
X110373748Y-97756685D01*
X110349069Y-97755564D01*
X110349050Y-97755564D01*
X110347650Y-97755500D01*
X110172985Y-97755500D01*
X110170477Y-97755702D01*
X110170472Y-97755702D01*
X109991056Y-97770137D01*
X109991051Y-97770138D01*
X109986015Y-97770543D01*
X109981107Y-97771748D01*
X109981104Y-97771749D01*
X109749326Y-97828680D01*
X109742461Y-97830366D01*
X109737809Y-97832341D01*
X109737805Y-97832342D01*
X109617061Y-97883595D01*
X109511604Y-97928359D01*
X109299385Y-98062000D01*
X109111262Y-98227853D01*
X108952076Y-98421649D01*
X108825922Y-98638404D01*
X108736045Y-98872539D01*
X108684759Y-99118033D01*
X108673382Y-99368568D01*
X108327000Y-99368568D01*
X108327000Y-93345000D01*
X113936735Y-93345000D01*
X113955760Y-93562454D01*
X114012256Y-93773300D01*
X114104507Y-93971132D01*
X114229709Y-94149940D01*
X114384060Y-94304291D01*
X114388568Y-94307448D01*
X114388571Y-94307450D01*
X114558358Y-94426336D01*
X114562867Y-94429493D01*
X114567849Y-94431816D01*
X114567854Y-94431819D01*
X114755718Y-94519421D01*
X114760700Y-94521744D01*
X114766008Y-94523166D01*
X114766010Y-94523167D01*
X114966231Y-94576816D01*
X114966233Y-94576816D01*
X114971546Y-94578240D01*
X115189000Y-94597265D01*
X115406454Y-94578240D01*
X115411767Y-94576816D01*
X115411769Y-94576816D01*
X115611990Y-94523167D01*
X115611992Y-94523166D01*
X115617300Y-94521744D01*
X115622282Y-94519421D01*
X115810146Y-94431819D01*
X115810151Y-94431816D01*
X115815133Y-94429493D01*
X115819642Y-94426336D01*
X115989429Y-94307450D01*
X115989432Y-94307448D01*
X115993940Y-94304291D01*
X116148291Y-94149940D01*
X116252288Y-94001416D01*
X116307744Y-93957088D01*
X116378363Y-93949779D01*
X116441723Y-93981809D01*
X116477709Y-94043010D01*
X116481500Y-94073687D01*
X116481500Y-94132134D01*
X116488255Y-94194316D01*
X116539385Y-94330705D01*
X116626739Y-94447261D01*
X116743295Y-94534615D01*
X116879684Y-94585745D01*
X116941866Y-94592500D01*
X116994500Y-94592500D01*
X117062621Y-94612502D01*
X117109114Y-94666158D01*
X117120500Y-94718500D01*
X117120500Y-106504864D01*
X117119422Y-106521307D01*
X117115250Y-106553000D01*
X117120500Y-106592880D01*
X117120500Y-106592885D01*
X117133609Y-106692457D01*
X117136162Y-106711851D01*
X117197476Y-106859876D01*
X117202503Y-106866427D01*
X117202504Y-106866429D01*
X117270520Y-106955069D01*
X117270526Y-106955075D01*
X117295013Y-106986987D01*
X117301568Y-106992017D01*
X117320379Y-107006452D01*
X117332770Y-107017319D01*
X119804685Y-109489234D01*
X119815552Y-109501625D01*
X119835013Y-109526987D01*
X119841563Y-109532013D01*
X119866925Y-109551474D01*
X119866928Y-109551477D01*
X119936318Y-109604722D01*
X119955570Y-109619495D01*
X119955574Y-109619497D01*
X119962125Y-109624524D01*
X120110150Y-109685838D01*
X120229115Y-109701500D01*
X120229120Y-109701500D01*
X120229129Y-109701501D01*
X120260812Y-109705672D01*
X120269000Y-109706750D01*
X120300693Y-109702578D01*
X120317136Y-109701500D01*
X124332176Y-109701500D01*
X124400297Y-109721502D01*
X124446790Y-109775158D01*
X124456894Y-109845432D01*
X124433002Y-109903065D01*
X124356385Y-110005295D01*
X124305255Y-110141684D01*
X124298500Y-110203866D01*
X124298500Y-111481406D01*
X124278498Y-111549527D01*
X124261595Y-111570501D01*
X122710500Y-113121595D01*
X122648188Y-113155621D01*
X122621405Y-113158500D01*
X117795359Y-113158500D01*
X117727238Y-113138498D01*
X117689567Y-113100940D01*
X117612602Y-112981971D01*
X117578764Y-112929665D01*
X117422887Y-112758358D01*
X117418836Y-112755159D01*
X117418832Y-112755155D01*
X117245177Y-112618011D01*
X117245172Y-112618008D01*
X117241123Y-112614810D01*
X117236607Y-112612317D01*
X117236604Y-112612315D01*
X117042879Y-112505373D01*
X117042875Y-112505371D01*
X117038355Y-112502876D01*
X117033486Y-112501152D01*
X117033482Y-112501150D01*
X116824903Y-112427288D01*
X116824899Y-112427287D01*
X116820028Y-112425562D01*
X116814935Y-112424655D01*
X116814932Y-112424654D01*
X116597095Y-112385851D01*
X116597089Y-112385850D01*
X116592006Y-112384945D01*
X116519096Y-112384054D01*
X116365581Y-112382179D01*
X116365579Y-112382179D01*
X116360411Y-112382116D01*
X116131464Y-112417150D01*
X115911314Y-112489106D01*
X115906726Y-112491494D01*
X115906722Y-112491496D01*
X115828137Y-112532405D01*
X115705872Y-112596052D01*
X115701739Y-112599155D01*
X115701736Y-112599157D01*
X115676625Y-112618011D01*
X115520655Y-112735117D01*
X115360639Y-112902564D01*
X115357725Y-112906836D01*
X115357724Y-112906837D01*
X115342152Y-112929665D01*
X115230119Y-113093899D01*
X115132602Y-113303981D01*
X115070707Y-113527169D01*
X115046095Y-113757469D01*
X115046392Y-113762622D01*
X115046392Y-113762625D01*
X115053463Y-113885261D01*
X115059427Y-113988697D01*
X115060564Y-113993743D01*
X115060565Y-113993749D01*
X115081154Y-114085109D01*
X115110346Y-114214642D01*
X115112288Y-114219424D01*
X115112289Y-114219428D01*
X115195540Y-114424450D01*
X115197484Y-114429237D01*
X115318501Y-114626719D01*
X115382010Y-114700036D01*
X115461048Y-114791280D01*
X115490530Y-114855865D01*
X115480415Y-114926138D01*
X115456904Y-114960828D01*
X115442845Y-114975540D01*
X115360639Y-115061564D01*
X115357725Y-115065836D01*
X115357724Y-115065837D01*
X115342152Y-115088665D01*
X115230119Y-115252899D01*
X115132602Y-115462981D01*
X115070707Y-115686169D01*
X115046095Y-115916469D01*
X115046392Y-115921622D01*
X115046392Y-115921625D01*
X115052158Y-116021621D01*
X115059427Y-116147697D01*
X115060564Y-116152743D01*
X115060565Y-116152749D01*
X115092148Y-116292891D01*
X115110346Y-116373642D01*
X115112288Y-116378424D01*
X115112289Y-116378428D01*
X115180942Y-116547500D01*
X115197484Y-116588237D01*
X115318501Y-116785719D01*
X115321882Y-116789622D01*
X115461048Y-116950280D01*
X115490530Y-117014865D01*
X115480415Y-117085138D01*
X115456904Y-117119828D01*
X115421689Y-117156679D01*
X115360639Y-117220564D01*
X115357725Y-117224836D01*
X115357724Y-117224837D01*
X115344569Y-117244121D01*
X115230119Y-117411899D01*
X115132602Y-117621981D01*
X115070707Y-117845169D01*
X115046095Y-118075469D01*
X115046392Y-118080622D01*
X115046392Y-118080625D01*
X115052067Y-118179041D01*
X115059427Y-118306697D01*
X115060564Y-118311743D01*
X115060565Y-118311749D01*
X115091825Y-118450460D01*
X115110346Y-118532642D01*
X115112288Y-118537424D01*
X115112289Y-118537428D01*
X115195540Y-118742450D01*
X115197484Y-118747237D01*
X115228969Y-118798615D01*
X115245532Y-118825644D01*
X115264070Y-118894178D01*
X115242614Y-118961854D01*
X115213664Y-118992305D01*
X115195739Y-119005739D01*
X115108385Y-119122295D01*
X115057255Y-119258684D01*
X115050500Y-119320866D01*
X115050500Y-121217134D01*
X115057255Y-121279316D01*
X115108385Y-121415705D01*
X115195739Y-121532261D01*
X115312295Y-121619615D01*
X115448684Y-121670745D01*
X115510866Y-121677500D01*
X117407134Y-121677500D01*
X117469316Y-121670745D01*
X117605705Y-121619615D01*
X117722261Y-121532261D01*
X117809615Y-121415705D01*
X117860745Y-121279316D01*
X117867500Y-121217134D01*
X117867500Y-121028500D01*
X117887502Y-120960379D01*
X117941158Y-120913886D01*
X117993500Y-120902500D01*
X120462406Y-120902500D01*
X120530527Y-120922502D01*
X120551501Y-120939405D01*
X121543343Y-121931247D01*
X121550887Y-121939537D01*
X121555000Y-121946018D01*
X121560777Y-121951443D01*
X121604667Y-121992658D01*
X121607509Y-121995413D01*
X121627230Y-122015134D01*
X121630425Y-122017612D01*
X121639447Y-122025318D01*
X121671679Y-122055586D01*
X121678628Y-122059406D01*
X121689432Y-122065346D01*
X121705956Y-122076199D01*
X121721959Y-122088613D01*
X121762543Y-122106176D01*
X121773173Y-122111383D01*
X121811940Y-122132695D01*
X121819617Y-122134666D01*
X121819622Y-122134668D01*
X121831558Y-122137732D01*
X121850266Y-122144137D01*
X121868855Y-122152181D01*
X121876683Y-122153421D01*
X121876690Y-122153423D01*
X121912524Y-122159099D01*
X121924144Y-122161505D01*
X121947503Y-122167502D01*
X121966970Y-122172500D01*
X121987224Y-122172500D01*
X122006934Y-122174051D01*
X122026943Y-122177220D01*
X122034835Y-122176474D01*
X122070961Y-122173059D01*
X122082819Y-122172500D01*
X124172500Y-122172500D01*
X124240621Y-122192502D01*
X124287114Y-122246158D01*
X124298500Y-122298500D01*
X124298500Y-123222134D01*
X124305255Y-123284316D01*
X124356385Y-123420705D01*
X124443739Y-123537261D01*
X124560295Y-123624615D01*
X124696684Y-123675745D01*
X124758866Y-123682500D01*
X125925134Y-123682500D01*
X125987316Y-123675745D01*
X126123705Y-123624615D01*
X126240261Y-123537261D01*
X126327615Y-123420705D01*
X126378745Y-123284316D01*
X126385500Y-123222134D01*
X130408500Y-123222134D01*
X130415255Y-123284316D01*
X130466385Y-123420705D01*
X130553739Y-123537261D01*
X130670295Y-123624615D01*
X130806684Y-123675745D01*
X130868866Y-123682500D01*
X132035134Y-123682500D01*
X132097316Y-123675745D01*
X132233705Y-123624615D01*
X132350261Y-123537261D01*
X132437615Y-123420705D01*
X132488745Y-123284316D01*
X132495500Y-123222134D01*
X132495500Y-122273500D01*
X132515502Y-122205379D01*
X132569158Y-122158886D01*
X132621500Y-122147500D01*
X141554761Y-122147500D01*
X141622882Y-122167502D01*
X141643856Y-122184405D01*
X142156685Y-122697234D01*
X142167552Y-122709625D01*
X142187013Y-122734987D01*
X142193563Y-122740013D01*
X142218921Y-122759471D01*
X142218937Y-122759485D01*
X142268305Y-122797366D01*
X142314124Y-122832524D01*
X142462149Y-122893838D01*
X142470336Y-122894916D01*
X142470337Y-122894916D01*
X142481542Y-122896391D01*
X142512738Y-122900498D01*
X142581115Y-122909500D01*
X142581118Y-122909500D01*
X142581126Y-122909501D01*
X142612811Y-122913672D01*
X142621000Y-122914750D01*
X142629189Y-122913672D01*
X142652693Y-122910578D01*
X142669138Y-122909500D01*
X153328500Y-122909500D01*
X153396621Y-122929502D01*
X153443114Y-122983158D01*
X153454500Y-123035500D01*
X153454500Y-123199134D01*
X153461255Y-123261316D01*
X153512385Y-123397705D01*
X153599739Y-123514261D01*
X153716295Y-123601615D01*
X153852684Y-123652745D01*
X153914866Y-123659500D01*
X155711134Y-123659500D01*
X155773316Y-123652745D01*
X155909705Y-123601615D01*
X156026261Y-123514261D01*
X156113615Y-123397705D01*
X156164745Y-123261316D01*
X156171500Y-123199134D01*
X156171500Y-121402866D01*
X156164745Y-121340684D01*
X156113615Y-121204295D01*
X156026261Y-121087739D01*
X155909705Y-121000385D01*
X155773316Y-120949255D01*
X155711134Y-120942500D01*
X153914866Y-120942500D01*
X153852684Y-120949255D01*
X153716295Y-121000385D01*
X153599739Y-121087739D01*
X153512385Y-121204295D01*
X153461255Y-121340684D01*
X153454500Y-121402866D01*
X153454500Y-121566500D01*
X153434498Y-121634621D01*
X153380842Y-121681114D01*
X153328500Y-121692500D01*
X142925239Y-121692500D01*
X142857118Y-121672498D01*
X142836144Y-121655595D01*
X142323315Y-121142766D01*
X142312448Y-121130375D01*
X142298013Y-121111563D01*
X142292987Y-121105013D01*
X142261075Y-121080526D01*
X142261072Y-121080523D01*
X142165876Y-121007476D01*
X142017851Y-120946162D01*
X142009664Y-120945084D01*
X142009663Y-120945084D01*
X141990034Y-120942500D01*
X141898893Y-120930501D01*
X141898891Y-120930501D01*
X141898885Y-120930500D01*
X141898883Y-120930500D01*
X141898874Y-120930499D01*
X141867189Y-120926328D01*
X141859000Y-120925250D01*
X141827307Y-120929422D01*
X141810864Y-120930500D01*
X132621500Y-120930500D01*
X132553379Y-120910498D01*
X132506886Y-120856842D01*
X132495500Y-120804500D01*
X132495500Y-119855866D01*
X132488745Y-119793684D01*
X132437615Y-119657295D01*
X132350261Y-119540739D01*
X132233705Y-119453385D01*
X132097316Y-119402255D01*
X132035134Y-119395500D01*
X130868866Y-119395500D01*
X130806684Y-119402255D01*
X130670295Y-119453385D01*
X130553739Y-119540739D01*
X130466385Y-119657295D01*
X130415255Y-119793684D01*
X130408500Y-119855866D01*
X130408500Y-123222134D01*
X126385500Y-123222134D01*
X126385500Y-119855866D01*
X126378745Y-119793684D01*
X126327615Y-119657295D01*
X126240261Y-119540739D01*
X126123705Y-119453385D01*
X125987316Y-119402255D01*
X125925134Y-119395500D01*
X124758866Y-119395500D01*
X124696684Y-119402255D01*
X124560295Y-119453385D01*
X124443739Y-119540739D01*
X124356385Y-119657295D01*
X124305255Y-119793684D01*
X124298500Y-119855866D01*
X124298500Y-120779500D01*
X124278498Y-120847621D01*
X124224842Y-120894114D01*
X124172500Y-120905500D01*
X122361595Y-120905500D01*
X122293474Y-120885498D01*
X122272500Y-120868595D01*
X121280652Y-119876747D01*
X121273112Y-119868461D01*
X121269000Y-119861982D01*
X121219348Y-119815356D01*
X121216507Y-119812602D01*
X121196770Y-119792865D01*
X121193573Y-119790385D01*
X121184551Y-119782680D01*
X121158100Y-119757841D01*
X121152321Y-119752414D01*
X121145375Y-119748595D01*
X121145372Y-119748593D01*
X121134566Y-119742652D01*
X121118047Y-119731801D01*
X121117583Y-119731441D01*
X121102041Y-119719386D01*
X121094772Y-119716241D01*
X121094768Y-119716238D01*
X121061463Y-119701826D01*
X121050813Y-119696609D01*
X121012060Y-119675305D01*
X120992437Y-119670267D01*
X120973734Y-119663863D01*
X120962420Y-119658967D01*
X120962419Y-119658967D01*
X120955145Y-119655819D01*
X120947322Y-119654580D01*
X120947312Y-119654577D01*
X120911476Y-119648901D01*
X120899856Y-119646495D01*
X120864711Y-119637472D01*
X120864710Y-119637472D01*
X120857030Y-119635500D01*
X120836776Y-119635500D01*
X120817065Y-119633949D01*
X120804886Y-119632020D01*
X120797057Y-119630780D01*
X120789165Y-119631526D01*
X120753039Y-119634941D01*
X120741181Y-119635500D01*
X117993500Y-119635500D01*
X117925379Y-119615498D01*
X117878886Y-119561842D01*
X117867500Y-119509500D01*
X117867500Y-119320866D01*
X117860745Y-119258684D01*
X117809615Y-119122295D01*
X117722261Y-119005739D01*
X117707695Y-118994822D01*
X117665182Y-118937965D01*
X117660156Y-118867147D01*
X117671562Y-118838463D01*
X117670458Y-118837917D01*
X117770784Y-118634922D01*
X117770785Y-118634920D01*
X117773078Y-118630280D01*
X117840408Y-118408671D01*
X117870640Y-118179041D01*
X117870722Y-118175691D01*
X117872245Y-118113365D01*
X117872245Y-118113361D01*
X117872327Y-118110000D01*
X117864147Y-118010500D01*
X117853773Y-117884318D01*
X117853772Y-117884312D01*
X117853349Y-117879167D01*
X117796925Y-117654533D01*
X117791088Y-117641109D01*
X117706630Y-117446868D01*
X117706628Y-117446865D01*
X117704570Y-117442131D01*
X117578764Y-117247665D01*
X117565791Y-117233407D01*
X117483945Y-117143460D01*
X117457476Y-117114371D01*
X117426424Y-117050526D01*
X117434820Y-116980027D01*
X117461731Y-116940321D01*
X117531637Y-116870660D01*
X117531647Y-116870648D01*
X117535303Y-116867005D01*
X117539439Y-116861250D01*
X117596875Y-116781318D01*
X117670458Y-116678917D01*
X117682440Y-116654672D01*
X117730553Y-116602466D01*
X117795397Y-116584500D01*
X121732405Y-116584500D01*
X121800526Y-116604502D01*
X121821501Y-116621405D01*
X122065517Y-116865422D01*
X122305353Y-117105258D01*
X122312887Y-117113537D01*
X122317000Y-117120018D01*
X122366651Y-117166643D01*
X122369493Y-117169398D01*
X122389230Y-117189135D01*
X122392427Y-117191615D01*
X122401447Y-117199318D01*
X122433679Y-117229586D01*
X122440625Y-117233405D01*
X122440628Y-117233407D01*
X122451434Y-117239348D01*
X122467953Y-117250199D01*
X122483959Y-117262614D01*
X122491228Y-117265759D01*
X122491232Y-117265762D01*
X122524537Y-117280174D01*
X122535187Y-117285391D01*
X122573940Y-117306695D01*
X122581615Y-117308666D01*
X122581616Y-117308666D01*
X122593562Y-117311733D01*
X122612266Y-117318137D01*
X122620038Y-117321500D01*
X122630855Y-117326181D01*
X122638678Y-117327420D01*
X122638688Y-117327423D01*
X122674524Y-117333099D01*
X122686144Y-117335505D01*
X122709503Y-117341502D01*
X122728970Y-117346500D01*
X122749224Y-117346500D01*
X122768934Y-117348051D01*
X122788943Y-117351220D01*
X122796835Y-117350474D01*
X122832961Y-117347059D01*
X122844819Y-117346500D01*
X124172500Y-117346500D01*
X124240621Y-117366502D01*
X124287114Y-117420158D01*
X124298500Y-117472500D01*
X124298500Y-118396134D01*
X124305255Y-118458316D01*
X124356385Y-118594705D01*
X124443739Y-118711261D01*
X124560295Y-118798615D01*
X124696684Y-118849745D01*
X124758866Y-118856500D01*
X125925134Y-118856500D01*
X125987316Y-118849745D01*
X126123705Y-118798615D01*
X126240261Y-118711261D01*
X126327615Y-118594705D01*
X126378745Y-118458316D01*
X126385500Y-118396134D01*
X130408500Y-118396134D01*
X130415255Y-118458316D01*
X130466385Y-118594705D01*
X130553739Y-118711261D01*
X130670295Y-118798615D01*
X130806684Y-118849745D01*
X130868866Y-118856500D01*
X132035134Y-118856500D01*
X132097316Y-118849745D01*
X132233705Y-118798615D01*
X132350261Y-118711261D01*
X132437615Y-118594705D01*
X132488745Y-118458316D01*
X132495500Y-118396134D01*
X132495500Y-117447500D01*
X132515502Y-117379379D01*
X132569158Y-117332886D01*
X132621500Y-117321500D01*
X142316761Y-117321500D01*
X142384882Y-117341502D01*
X142405856Y-117358405D01*
X142918685Y-117871234D01*
X142929552Y-117883625D01*
X142949013Y-117908987D01*
X142955563Y-117914013D01*
X142980921Y-117933471D01*
X142980937Y-117933485D01*
X143030305Y-117971366D01*
X143076124Y-118006524D01*
X143224149Y-118067838D01*
X143232336Y-118068916D01*
X143232337Y-118068916D01*
X143243542Y-118070391D01*
X143274738Y-118074498D01*
X143343115Y-118083500D01*
X143343118Y-118083500D01*
X143343126Y-118083501D01*
X143374811Y-118087672D01*
X143383000Y-118088750D01*
X143391189Y-118087672D01*
X143414693Y-118084578D01*
X143431138Y-118083500D01*
X149174761Y-118083500D01*
X149242882Y-118103502D01*
X149263856Y-118120405D01*
X150284685Y-119141234D01*
X150295552Y-119153625D01*
X150315013Y-119178987D01*
X150321563Y-119184013D01*
X150346925Y-119203474D01*
X150346928Y-119203477D01*
X150429113Y-119266540D01*
X150442124Y-119276524D01*
X150503438Y-119301921D01*
X150582520Y-119334678D01*
X150582523Y-119334679D01*
X150590150Y-119337838D01*
X150709115Y-119353500D01*
X150709120Y-119353500D01*
X150709129Y-119353501D01*
X150740812Y-119357672D01*
X150749000Y-119358750D01*
X150780693Y-119354578D01*
X150797136Y-119353500D01*
X153328500Y-119353500D01*
X153396621Y-119373502D01*
X153443114Y-119427158D01*
X153454500Y-119479500D01*
X153454500Y-119643134D01*
X153461255Y-119705316D01*
X153512385Y-119841705D01*
X153599739Y-119958261D01*
X153716295Y-120045615D01*
X153852684Y-120096745D01*
X153914866Y-120103500D01*
X155711134Y-120103500D01*
X155773316Y-120096745D01*
X155909705Y-120045615D01*
X156026261Y-119958261D01*
X156113615Y-119841705D01*
X156164745Y-119705316D01*
X156171500Y-119643134D01*
X156171500Y-117846866D01*
X156164745Y-117784684D01*
X156113615Y-117648295D01*
X156026261Y-117531739D01*
X155909705Y-117444385D01*
X155773316Y-117393255D01*
X155711134Y-117386500D01*
X153914866Y-117386500D01*
X153852684Y-117393255D01*
X153716295Y-117444385D01*
X153599739Y-117531739D01*
X153512385Y-117648295D01*
X153461255Y-117784684D01*
X153454500Y-117846866D01*
X153454500Y-118010500D01*
X153434498Y-118078621D01*
X153380842Y-118125114D01*
X153328500Y-118136500D01*
X151053239Y-118136500D01*
X150985118Y-118116498D01*
X150964144Y-118099595D01*
X149943315Y-117078766D01*
X149932448Y-117066375D01*
X149918013Y-117047563D01*
X149912987Y-117041013D01*
X149881075Y-117016526D01*
X149881072Y-117016523D01*
X149785876Y-116943476D01*
X149637851Y-116882162D01*
X149629664Y-116881084D01*
X149629663Y-116881084D01*
X149618458Y-116879609D01*
X149587262Y-116875502D01*
X149518885Y-116866500D01*
X149518882Y-116866500D01*
X149518874Y-116866499D01*
X149487189Y-116862328D01*
X149479000Y-116861250D01*
X149447307Y-116865422D01*
X149430864Y-116866500D01*
X143687239Y-116866500D01*
X143619118Y-116846498D01*
X143598144Y-116829595D01*
X143085315Y-116316766D01*
X143074448Y-116304375D01*
X143060013Y-116285563D01*
X143054987Y-116279013D01*
X143023075Y-116254526D01*
X143023072Y-116254523D01*
X142927876Y-116181476D01*
X142779851Y-116120162D01*
X142771664Y-116119084D01*
X142771663Y-116119084D01*
X142760458Y-116117609D01*
X142729262Y-116113502D01*
X142660885Y-116104500D01*
X142660882Y-116104500D01*
X142660874Y-116104499D01*
X142629189Y-116100328D01*
X142621000Y-116099250D01*
X142589307Y-116103422D01*
X142572864Y-116104500D01*
X132621500Y-116104500D01*
X132553379Y-116084498D01*
X132506886Y-116030842D01*
X132495500Y-115978500D01*
X132495500Y-115029866D01*
X132488745Y-114967684D01*
X132437615Y-114831295D01*
X132350261Y-114714739D01*
X132233705Y-114627385D01*
X132097316Y-114576255D01*
X132035134Y-114569500D01*
X130868866Y-114569500D01*
X130806684Y-114576255D01*
X130670295Y-114627385D01*
X130553739Y-114714739D01*
X130466385Y-114831295D01*
X130415255Y-114967684D01*
X130408500Y-115029866D01*
X130408500Y-118396134D01*
X126385500Y-118396134D01*
X126385500Y-115029866D01*
X126378745Y-114967684D01*
X126327615Y-114831295D01*
X126240261Y-114714739D01*
X126123705Y-114627385D01*
X125987316Y-114576255D01*
X125925134Y-114569500D01*
X124758866Y-114569500D01*
X124696684Y-114576255D01*
X124560295Y-114627385D01*
X124443739Y-114714739D01*
X124356385Y-114831295D01*
X124305255Y-114967684D01*
X124298500Y-115029866D01*
X124298500Y-115953500D01*
X124278498Y-116021621D01*
X124224842Y-116068114D01*
X124172500Y-116079500D01*
X123123595Y-116079500D01*
X123055474Y-116059498D01*
X123034499Y-116042595D01*
X122794655Y-115802750D01*
X122550647Y-115558742D01*
X122543113Y-115550463D01*
X122539000Y-115543982D01*
X122489348Y-115497356D01*
X122486507Y-115494602D01*
X122466770Y-115474865D01*
X122463573Y-115472385D01*
X122454551Y-115464680D01*
X122428100Y-115439841D01*
X122422321Y-115434414D01*
X122415375Y-115430595D01*
X122415372Y-115430593D01*
X122404566Y-115424652D01*
X122388047Y-115413801D01*
X122387583Y-115413441D01*
X122372041Y-115401386D01*
X122364772Y-115398241D01*
X122364768Y-115398238D01*
X122331463Y-115383826D01*
X122320813Y-115378609D01*
X122282060Y-115357305D01*
X122262437Y-115352267D01*
X122243734Y-115345863D01*
X122232420Y-115340967D01*
X122232419Y-115340967D01*
X122225145Y-115337819D01*
X122217322Y-115336580D01*
X122217312Y-115336577D01*
X122181476Y-115330901D01*
X122169856Y-115328495D01*
X122134711Y-115319472D01*
X122134710Y-115319472D01*
X122127030Y-115317500D01*
X122106776Y-115317500D01*
X122087065Y-115315949D01*
X122074886Y-115314020D01*
X122067057Y-115312780D01*
X122059165Y-115313526D01*
X122023039Y-115316941D01*
X122011181Y-115317500D01*
X117795359Y-115317500D01*
X117727238Y-115297498D01*
X117689567Y-115259940D01*
X117581574Y-115093009D01*
X117578764Y-115088665D01*
X117528371Y-115033283D01*
X117468680Y-114967684D01*
X117457476Y-114955371D01*
X117426424Y-114891526D01*
X117434820Y-114821027D01*
X117461731Y-114781321D01*
X117531637Y-114711660D01*
X117531647Y-114711648D01*
X117535303Y-114708005D01*
X117670458Y-114519917D01*
X117682440Y-114495672D01*
X117730553Y-114443466D01*
X117795397Y-114425500D01*
X122857233Y-114425500D01*
X122868416Y-114426027D01*
X122875909Y-114427702D01*
X122883835Y-114427453D01*
X122883836Y-114427453D01*
X122943986Y-114425562D01*
X122947945Y-114425500D01*
X122975856Y-114425500D01*
X122979791Y-114425003D01*
X122979856Y-114424995D01*
X122991693Y-114424062D01*
X123023951Y-114423048D01*
X123027970Y-114422922D01*
X123035889Y-114422673D01*
X123055343Y-114417021D01*
X123074700Y-114413013D01*
X123086930Y-114411468D01*
X123086931Y-114411468D01*
X123094797Y-114410474D01*
X123102168Y-114407555D01*
X123102170Y-114407555D01*
X123135912Y-114394196D01*
X123147142Y-114390351D01*
X123181983Y-114380229D01*
X123181984Y-114380229D01*
X123189593Y-114378018D01*
X123196412Y-114373985D01*
X123196417Y-114373983D01*
X123207028Y-114367707D01*
X123224776Y-114359012D01*
X123243617Y-114351552D01*
X123279387Y-114325564D01*
X123289307Y-114319048D01*
X123320535Y-114300580D01*
X123320538Y-114300578D01*
X123327362Y-114296542D01*
X123341683Y-114282221D01*
X123356717Y-114269380D01*
X123366694Y-114262131D01*
X123373107Y-114257472D01*
X123401298Y-114223395D01*
X123409288Y-114214616D01*
X124088563Y-113535341D01*
X124150875Y-113501315D01*
X124221690Y-113506380D01*
X124278526Y-113548927D01*
X124302921Y-113610830D01*
X124304401Y-113624459D01*
X124304402Y-113624463D01*
X124305255Y-113632316D01*
X124356385Y-113768705D01*
X124443739Y-113885261D01*
X124560295Y-113972615D01*
X124696684Y-114023745D01*
X124758866Y-114030500D01*
X125925134Y-114030500D01*
X125987316Y-114023745D01*
X126123705Y-113972615D01*
X126240261Y-113885261D01*
X126327615Y-113768705D01*
X126378745Y-113632316D01*
X126385500Y-113570134D01*
X126385500Y-110203866D01*
X126378745Y-110141684D01*
X126327615Y-110005295D01*
X126250998Y-109903065D01*
X126226150Y-109836558D01*
X126241203Y-109767176D01*
X126291377Y-109716946D01*
X126351824Y-109701500D01*
X130442176Y-109701500D01*
X130510297Y-109721502D01*
X130556790Y-109775158D01*
X130566894Y-109845432D01*
X130543002Y-109903065D01*
X130466385Y-110005295D01*
X130415255Y-110141684D01*
X130408500Y-110203866D01*
X130408500Y-113570134D01*
X130415255Y-113632316D01*
X130466385Y-113768705D01*
X130553739Y-113885261D01*
X130670295Y-113972615D01*
X130806684Y-114023745D01*
X130868866Y-114030500D01*
X132035134Y-114030500D01*
X132097316Y-114023745D01*
X132233705Y-113972615D01*
X132350261Y-113885261D01*
X132437615Y-113768705D01*
X132488745Y-113632316D01*
X132495500Y-113570134D01*
X132495500Y-112621500D01*
X132515502Y-112553379D01*
X132569158Y-112506886D01*
X132621500Y-112495500D01*
X143078761Y-112495500D01*
X143146882Y-112515502D01*
X143167856Y-112532405D01*
X146220685Y-115585234D01*
X146231552Y-115597625D01*
X146251013Y-115622987D01*
X146282925Y-115647474D01*
X146282928Y-115647477D01*
X146378124Y-115720524D01*
X146439438Y-115745921D01*
X146518520Y-115778678D01*
X146518523Y-115778679D01*
X146526150Y-115781838D01*
X146645115Y-115797500D01*
X146645120Y-115797500D01*
X146645129Y-115797501D01*
X146676812Y-115801672D01*
X146685000Y-115802750D01*
X146716693Y-115798578D01*
X146733136Y-115797500D01*
X153328500Y-115797500D01*
X153396621Y-115817502D01*
X153443114Y-115871158D01*
X153454500Y-115923500D01*
X153454500Y-116087134D01*
X153461255Y-116149316D01*
X153512385Y-116285705D01*
X153599739Y-116402261D01*
X153716295Y-116489615D01*
X153852684Y-116540745D01*
X153914866Y-116547500D01*
X155711134Y-116547500D01*
X155773316Y-116540745D01*
X155909705Y-116489615D01*
X156026261Y-116402261D01*
X156113615Y-116285705D01*
X156164745Y-116149316D01*
X156171500Y-116087134D01*
X156171500Y-114290866D01*
X156164745Y-114228684D01*
X156113615Y-114092295D01*
X156026261Y-113975739D01*
X155909705Y-113888385D01*
X155773316Y-113837255D01*
X155711134Y-113830500D01*
X153914866Y-113830500D01*
X153852684Y-113837255D01*
X153716295Y-113888385D01*
X153599739Y-113975739D01*
X153512385Y-114092295D01*
X153461255Y-114228684D01*
X153454500Y-114290866D01*
X153454500Y-114454500D01*
X153434498Y-114522621D01*
X153380842Y-114569114D01*
X153328500Y-114580500D01*
X146989239Y-114580500D01*
X146921118Y-114560498D01*
X146900144Y-114543595D01*
X144817316Y-112460767D01*
X144783290Y-112398455D01*
X144788355Y-112327640D01*
X144830902Y-112270804D01*
X144897422Y-112245993D01*
X144900433Y-112245885D01*
X144907000Y-112246750D01*
X144938693Y-112242578D01*
X144955136Y-112241500D01*
X153328500Y-112241500D01*
X153396621Y-112261502D01*
X153443114Y-112315158D01*
X153454500Y-112367500D01*
X153454500Y-112531134D01*
X153461255Y-112593316D01*
X153512385Y-112729705D01*
X153599739Y-112846261D01*
X153716295Y-112933615D01*
X153852684Y-112984745D01*
X153914866Y-112991500D01*
X155711134Y-112991500D01*
X155773316Y-112984745D01*
X155909705Y-112933615D01*
X156026261Y-112846261D01*
X156113615Y-112729705D01*
X156164745Y-112593316D01*
X156171500Y-112531134D01*
X156171500Y-110734866D01*
X156164745Y-110672684D01*
X156113615Y-110536295D01*
X156026261Y-110419739D01*
X155909705Y-110332385D01*
X155773316Y-110281255D01*
X155711134Y-110274500D01*
X153914866Y-110274500D01*
X153852684Y-110281255D01*
X153716295Y-110332385D01*
X153599739Y-110419739D01*
X153512385Y-110536295D01*
X153461255Y-110672684D01*
X153454500Y-110734866D01*
X153454500Y-110898500D01*
X153434498Y-110966621D01*
X153380842Y-111013114D01*
X153328500Y-111024500D01*
X145211239Y-111024500D01*
X145143118Y-111004498D01*
X145122144Y-110987595D01*
X143035144Y-108900595D01*
X143001118Y-108838283D01*
X143006183Y-108767468D01*
X143048730Y-108710632D01*
X143115250Y-108685821D01*
X143124239Y-108685500D01*
X153328500Y-108685500D01*
X153396621Y-108705502D01*
X153443114Y-108759158D01*
X153454500Y-108811500D01*
X153454500Y-108975134D01*
X153461255Y-109037316D01*
X153512385Y-109173705D01*
X153599739Y-109290261D01*
X153716295Y-109377615D01*
X153852684Y-109428745D01*
X153914866Y-109435500D01*
X155711134Y-109435500D01*
X155773316Y-109428745D01*
X155909705Y-109377615D01*
X156026261Y-109290261D01*
X156113615Y-109173705D01*
X156164745Y-109037316D01*
X156171500Y-108975134D01*
X156171500Y-107178866D01*
X156164745Y-107116684D01*
X156113615Y-106980295D01*
X156026261Y-106863739D01*
X155909705Y-106776385D01*
X155773316Y-106725255D01*
X155711134Y-106718500D01*
X153914866Y-106718500D01*
X153852684Y-106725255D01*
X153716295Y-106776385D01*
X153599739Y-106863739D01*
X153512385Y-106980295D01*
X153461255Y-107116684D01*
X153454500Y-107178866D01*
X153454500Y-107342500D01*
X153434498Y-107410621D01*
X153380842Y-107457114D01*
X153328500Y-107468500D01*
X136321239Y-107468500D01*
X136253118Y-107448498D01*
X136232144Y-107431595D01*
X134122405Y-105321856D01*
X134088379Y-105259544D01*
X134085500Y-105232761D01*
X134085500Y-94718500D01*
X134105502Y-94650379D01*
X134159158Y-94603886D01*
X134211500Y-94592500D01*
X134264134Y-94592500D01*
X134326316Y-94585745D01*
X134462705Y-94534615D01*
X134579261Y-94447261D01*
X134666615Y-94330705D01*
X134717745Y-94194316D01*
X134724500Y-94132134D01*
X134724500Y-93345000D01*
X145432735Y-93345000D01*
X145451760Y-93562454D01*
X145508256Y-93773300D01*
X145600507Y-93971132D01*
X145725709Y-94149940D01*
X145880060Y-94304291D01*
X145884568Y-94307448D01*
X145884571Y-94307450D01*
X146054358Y-94426336D01*
X146058867Y-94429493D01*
X146063849Y-94431816D01*
X146063854Y-94431819D01*
X146251718Y-94519421D01*
X146256700Y-94521744D01*
X146262008Y-94523166D01*
X146262010Y-94523167D01*
X146462231Y-94576816D01*
X146462233Y-94576816D01*
X146467546Y-94578240D01*
X146685000Y-94597265D01*
X146902454Y-94578240D01*
X146907767Y-94576816D01*
X146907769Y-94576816D01*
X147107990Y-94523167D01*
X147107992Y-94523166D01*
X147113300Y-94521744D01*
X147118282Y-94519421D01*
X147306146Y-94431819D01*
X147306151Y-94431816D01*
X147311133Y-94429493D01*
X147315642Y-94426336D01*
X147485429Y-94307450D01*
X147485432Y-94307448D01*
X147489940Y-94304291D01*
X147644291Y-94149940D01*
X147748288Y-94001416D01*
X147803744Y-93957088D01*
X147874363Y-93949779D01*
X147937723Y-93981809D01*
X147973709Y-94043010D01*
X147977500Y-94073687D01*
X147977500Y-94132134D01*
X147984255Y-94194316D01*
X148035385Y-94330705D01*
X148122739Y-94447261D01*
X148239295Y-94534615D01*
X148375684Y-94585745D01*
X148437866Y-94592500D01*
X148490500Y-94592500D01*
X148558621Y-94612502D01*
X148605114Y-94666158D01*
X148616500Y-94718500D01*
X148616500Y-102948864D01*
X148615422Y-102965307D01*
X148611250Y-102997000D01*
X148616500Y-103036880D01*
X148616500Y-103036885D01*
X148629609Y-103136457D01*
X148632162Y-103155851D01*
X148693476Y-103303876D01*
X148698503Y-103310427D01*
X148698504Y-103310429D01*
X148766520Y-103399069D01*
X148766526Y-103399075D01*
X148791013Y-103430987D01*
X148797568Y-103436017D01*
X148816379Y-103450452D01*
X148828770Y-103461319D01*
X150284685Y-104917234D01*
X150295552Y-104929625D01*
X150315013Y-104954987D01*
X150321563Y-104960013D01*
X150346925Y-104979474D01*
X150346928Y-104979477D01*
X150416318Y-105032722D01*
X150435570Y-105047495D01*
X150435574Y-105047497D01*
X150442125Y-105052524D01*
X150590150Y-105113838D01*
X150709115Y-105129500D01*
X150709120Y-105129500D01*
X150709129Y-105129501D01*
X150740812Y-105133672D01*
X150749000Y-105134750D01*
X150780693Y-105130578D01*
X150797136Y-105129500D01*
X153328500Y-105129500D01*
X153396621Y-105149502D01*
X153443114Y-105203158D01*
X153454500Y-105255500D01*
X153454500Y-105419134D01*
X153461255Y-105481316D01*
X153512385Y-105617705D01*
X153599739Y-105734261D01*
X153716295Y-105821615D01*
X153852684Y-105872745D01*
X153914866Y-105879500D01*
X155711134Y-105879500D01*
X155773316Y-105872745D01*
X155909705Y-105821615D01*
X156026261Y-105734261D01*
X156113615Y-105617705D01*
X156164745Y-105481316D01*
X156171500Y-105419134D01*
X156171500Y-103622866D01*
X156164745Y-103560684D01*
X156113615Y-103424295D01*
X156026261Y-103307739D01*
X155909705Y-103220385D01*
X155773316Y-103169255D01*
X155711134Y-103162500D01*
X153914866Y-103162500D01*
X153852684Y-103169255D01*
X153716295Y-103220385D01*
X153599739Y-103307739D01*
X153512385Y-103424295D01*
X153461255Y-103560684D01*
X153454500Y-103622866D01*
X153454500Y-103786500D01*
X153434498Y-103854621D01*
X153380842Y-103901114D01*
X153328500Y-103912500D01*
X151053239Y-103912500D01*
X150985118Y-103892498D01*
X150964144Y-103875595D01*
X149870405Y-102781856D01*
X149836379Y-102719544D01*
X149833500Y-102692761D01*
X149833500Y-101863134D01*
X153454500Y-101863134D01*
X153461255Y-101925316D01*
X153512385Y-102061705D01*
X153599739Y-102178261D01*
X153716295Y-102265615D01*
X153852684Y-102316745D01*
X153914866Y-102323500D01*
X155711134Y-102323500D01*
X155773316Y-102316745D01*
X155909705Y-102265615D01*
X156026261Y-102178261D01*
X156113615Y-102061705D01*
X156164745Y-101925316D01*
X156171500Y-101863134D01*
X156171500Y-100066866D01*
X156164745Y-100004684D01*
X156113615Y-99868295D01*
X156026261Y-99751739D01*
X155909705Y-99664385D01*
X155773316Y-99613255D01*
X155711134Y-99606500D01*
X153914866Y-99606500D01*
X153852684Y-99613255D01*
X153716295Y-99664385D01*
X153599739Y-99751739D01*
X153512385Y-99868295D01*
X153461255Y-100004684D01*
X153454500Y-100066866D01*
X153454500Y-101863134D01*
X149833500Y-101863134D01*
X149833500Y-94718500D01*
X149853502Y-94650379D01*
X149907158Y-94603886D01*
X149959500Y-94592500D01*
X150012134Y-94592500D01*
X150074316Y-94585745D01*
X150210705Y-94534615D01*
X150327261Y-94447261D01*
X150414615Y-94330705D01*
X150465745Y-94194316D01*
X150472500Y-94132134D01*
X150472500Y-92557866D01*
X150465745Y-92495684D01*
X150414615Y-92359295D01*
X150327261Y-92242739D01*
X150210705Y-92155385D01*
X150074316Y-92104255D01*
X150012134Y-92097500D01*
X148437866Y-92097500D01*
X148375684Y-92104255D01*
X148239295Y-92155385D01*
X148122739Y-92242739D01*
X148035385Y-92359295D01*
X147984255Y-92495684D01*
X147977500Y-92557866D01*
X147977500Y-92616313D01*
X147957498Y-92684434D01*
X147903842Y-92730927D01*
X147833568Y-92741031D01*
X147768988Y-92711537D01*
X147748287Y-92688583D01*
X147697684Y-92616313D01*
X147644291Y-92540060D01*
X147489940Y-92385709D01*
X147485432Y-92382552D01*
X147485429Y-92382550D01*
X147315642Y-92263664D01*
X147315639Y-92263662D01*
X147311133Y-92260507D01*
X147306151Y-92258184D01*
X147306146Y-92258181D01*
X147118282Y-92170579D01*
X147118281Y-92170578D01*
X147113300Y-92168256D01*
X147107992Y-92166834D01*
X147107990Y-92166833D01*
X146907769Y-92113184D01*
X146907767Y-92113184D01*
X146902454Y-92111760D01*
X146685000Y-92092735D01*
X146467546Y-92111760D01*
X146462233Y-92113184D01*
X146462231Y-92113184D01*
X146262010Y-92166833D01*
X146262008Y-92166834D01*
X146256700Y-92168256D01*
X146251720Y-92170578D01*
X146251718Y-92170579D01*
X146063849Y-92258184D01*
X146063846Y-92258186D01*
X146058868Y-92260507D01*
X145880060Y-92385709D01*
X145725709Y-92540060D01*
X145600507Y-92718868D01*
X145598186Y-92723846D01*
X145598184Y-92723849D01*
X145590172Y-92741031D01*
X145508256Y-92916700D01*
X145451760Y-93127546D01*
X145432735Y-93345000D01*
X134724500Y-93345000D01*
X134724500Y-92557866D01*
X134717745Y-92495684D01*
X134666615Y-92359295D01*
X134579261Y-92242739D01*
X134462705Y-92155385D01*
X134326316Y-92104255D01*
X134264134Y-92097500D01*
X132689866Y-92097500D01*
X132627684Y-92104255D01*
X132491295Y-92155385D01*
X132374739Y-92242739D01*
X132287385Y-92359295D01*
X132236255Y-92495684D01*
X132229500Y-92557866D01*
X132229500Y-92616313D01*
X132209498Y-92684434D01*
X132155842Y-92730927D01*
X132085568Y-92741031D01*
X132020988Y-92711537D01*
X132000287Y-92688583D01*
X131949684Y-92616313D01*
X131896291Y-92540060D01*
X131741940Y-92385709D01*
X131737432Y-92382552D01*
X131737429Y-92382550D01*
X131567642Y-92263664D01*
X131567639Y-92263662D01*
X131563133Y-92260507D01*
X131558151Y-92258184D01*
X131558146Y-92258181D01*
X131370282Y-92170579D01*
X131370281Y-92170578D01*
X131365300Y-92168256D01*
X131359992Y-92166834D01*
X131359990Y-92166833D01*
X131159769Y-92113184D01*
X131159767Y-92113184D01*
X131154454Y-92111760D01*
X130937000Y-92092735D01*
X130719546Y-92111760D01*
X130714233Y-92113184D01*
X130714231Y-92113184D01*
X130514010Y-92166833D01*
X130514008Y-92166834D01*
X130508700Y-92168256D01*
X130503720Y-92170578D01*
X130503718Y-92170579D01*
X130315849Y-92258184D01*
X130315846Y-92258186D01*
X130310868Y-92260507D01*
X130132060Y-92385709D01*
X129977709Y-92540060D01*
X129852507Y-92718868D01*
X129850186Y-92723846D01*
X129850184Y-92723849D01*
X129842172Y-92741031D01*
X129760256Y-92916700D01*
X129703760Y-93127546D01*
X129684735Y-93345000D01*
X129703760Y-93562454D01*
X129760256Y-93773300D01*
X129852507Y-93971132D01*
X129977709Y-94149940D01*
X130132060Y-94304291D01*
X130136568Y-94307448D01*
X130136571Y-94307450D01*
X130306358Y-94426336D01*
X130310867Y-94429493D01*
X130315849Y-94431816D01*
X130315854Y-94431819D01*
X130503718Y-94519421D01*
X130508700Y-94521744D01*
X130514008Y-94523166D01*
X130514010Y-94523167D01*
X130714231Y-94576816D01*
X130714233Y-94576816D01*
X130719546Y-94578240D01*
X130937000Y-94597265D01*
X131154454Y-94578240D01*
X131159767Y-94576816D01*
X131159769Y-94576816D01*
X131359990Y-94523167D01*
X131359992Y-94523166D01*
X131365300Y-94521744D01*
X131370282Y-94519421D01*
X131558146Y-94431819D01*
X131558151Y-94431816D01*
X131563133Y-94429493D01*
X131567642Y-94426336D01*
X131737429Y-94307450D01*
X131737432Y-94307448D01*
X131741940Y-94304291D01*
X131896291Y-94149940D01*
X132000288Y-94001416D01*
X132055744Y-93957088D01*
X132126363Y-93949779D01*
X132189723Y-93981809D01*
X132225709Y-94043010D01*
X132229500Y-94073687D01*
X132229500Y-94132134D01*
X132236255Y-94194316D01*
X132287385Y-94330705D01*
X132374739Y-94447261D01*
X132491295Y-94534615D01*
X132627684Y-94585745D01*
X132689866Y-94592500D01*
X132742500Y-94592500D01*
X132810621Y-94612502D01*
X132857114Y-94666158D01*
X132868500Y-94718500D01*
X132868500Y-105488864D01*
X132867422Y-105505307D01*
X132863250Y-105537000D01*
X132868500Y-105576880D01*
X132868500Y-105576885D01*
X132873874Y-105617705D01*
X132884162Y-105695851D01*
X132945476Y-105843876D01*
X132950503Y-105850427D01*
X132950504Y-105850429D01*
X133018520Y-105939069D01*
X133018526Y-105939075D01*
X133043013Y-105970987D01*
X133049568Y-105976017D01*
X133068379Y-105990452D01*
X133080770Y-106001319D01*
X135348856Y-108269405D01*
X135382882Y-108331717D01*
X135377817Y-108402532D01*
X135335270Y-108459368D01*
X135268750Y-108484179D01*
X135259761Y-108484500D01*
X120573239Y-108484500D01*
X120505118Y-108464498D01*
X120484144Y-108447595D01*
X118374405Y-106337856D01*
X118340379Y-106275544D01*
X118337500Y-106248761D01*
X118337500Y-94718500D01*
X118357502Y-94650379D01*
X118411158Y-94603886D01*
X118463500Y-94592500D01*
X118516134Y-94592500D01*
X118578316Y-94585745D01*
X118714705Y-94534615D01*
X118831261Y-94447261D01*
X118918615Y-94330705D01*
X118969745Y-94194316D01*
X118976500Y-94132134D01*
X118976500Y-92557866D01*
X118969745Y-92495684D01*
X118918615Y-92359295D01*
X118831261Y-92242739D01*
X118714705Y-92155385D01*
X118578316Y-92104255D01*
X118516134Y-92097500D01*
X116941866Y-92097500D01*
X116879684Y-92104255D01*
X116743295Y-92155385D01*
X116626739Y-92242739D01*
X116539385Y-92359295D01*
X116488255Y-92495684D01*
X116481500Y-92557866D01*
X116481500Y-92616313D01*
X116461498Y-92684434D01*
X116407842Y-92730927D01*
X116337568Y-92741031D01*
X116272988Y-92711537D01*
X116252287Y-92688583D01*
X116201684Y-92616313D01*
X116148291Y-92540060D01*
X115993940Y-92385709D01*
X115989432Y-92382552D01*
X115989429Y-92382550D01*
X115819642Y-92263664D01*
X115819639Y-92263662D01*
X115815133Y-92260507D01*
X115810151Y-92258184D01*
X115810146Y-92258181D01*
X115622282Y-92170579D01*
X115622281Y-92170578D01*
X115617300Y-92168256D01*
X115611992Y-92166834D01*
X115611990Y-92166833D01*
X115411769Y-92113184D01*
X115411767Y-92113184D01*
X115406454Y-92111760D01*
X115189000Y-92092735D01*
X114971546Y-92111760D01*
X114966233Y-92113184D01*
X114966231Y-92113184D01*
X114766010Y-92166833D01*
X114766008Y-92166834D01*
X114760700Y-92168256D01*
X114755720Y-92170578D01*
X114755718Y-92170579D01*
X114567849Y-92258184D01*
X114567846Y-92258186D01*
X114562868Y-92260507D01*
X114384060Y-92385709D01*
X114229709Y-92540060D01*
X114104507Y-92718868D01*
X114102186Y-92723846D01*
X114102184Y-92723849D01*
X114094172Y-92741031D01*
X114012256Y-92916700D01*
X113955760Y-93127546D01*
X113936735Y-93345000D01*
X108327000Y-93345000D01*
X108327000Y-88243519D01*
X110597830Y-88243519D01*
X110613893Y-88522094D01*
X110614718Y-88526301D01*
X110614719Y-88526306D01*
X110627230Y-88590075D01*
X110667614Y-88795911D01*
X110669001Y-88799961D01*
X110669002Y-88799966D01*
X110690208Y-88861904D01*
X110757999Y-89059904D01*
X110883375Y-89309187D01*
X110885801Y-89312716D01*
X110885804Y-89312722D01*
X110923512Y-89367587D01*
X111041424Y-89539149D01*
X111229219Y-89745534D01*
X111443287Y-89924522D01*
X111446928Y-89926806D01*
X111676025Y-90070519D01*
X111676029Y-90070521D01*
X111679665Y-90072802D01*
X111745122Y-90102357D01*
X111930068Y-90185864D01*
X111930072Y-90185866D01*
X111933980Y-90187630D01*
X111938100Y-90188850D01*
X111938099Y-90188850D01*
X112197414Y-90265662D01*
X112197418Y-90265663D01*
X112201527Y-90266880D01*
X112205764Y-90267528D01*
X112205767Y-90267529D01*
X112440011Y-90303374D01*
X112477353Y-90309088D01*
X112619400Y-90311319D01*
X112752065Y-90313404D01*
X112752071Y-90313404D01*
X112756356Y-90313471D01*
X113033372Y-90279948D01*
X113303275Y-90209140D01*
X113561072Y-90102357D01*
X113608628Y-90074568D01*
X113798284Y-89963742D01*
X113798286Y-89963740D01*
X113801992Y-89961575D01*
X114021576Y-89789400D01*
X114061415Y-89748290D01*
X114212778Y-89592094D01*
X114215761Y-89589016D01*
X114218294Y-89585568D01*
X114218298Y-89585563D01*
X114378417Y-89367587D01*
X114380955Y-89364132D01*
X114514100Y-89118909D01*
X114612732Y-88857886D01*
X114675027Y-88585891D01*
X114681104Y-88517806D01*
X114699612Y-88310424D01*
X114699832Y-88307959D01*
X114700282Y-88265000D01*
X114698818Y-88243519D01*
X120757830Y-88243519D01*
X120773893Y-88522094D01*
X120774718Y-88526301D01*
X120774719Y-88526306D01*
X120787230Y-88590075D01*
X120827614Y-88795911D01*
X120829001Y-88799961D01*
X120829002Y-88799966D01*
X120850208Y-88861904D01*
X120917999Y-89059904D01*
X121043375Y-89309187D01*
X121045801Y-89312716D01*
X121045804Y-89312722D01*
X121083512Y-89367587D01*
X121201424Y-89539149D01*
X121389219Y-89745534D01*
X121603287Y-89924522D01*
X121606928Y-89926806D01*
X121836025Y-90070519D01*
X121836029Y-90070521D01*
X121839665Y-90072802D01*
X121905122Y-90102357D01*
X122090068Y-90185864D01*
X122090072Y-90185866D01*
X122093980Y-90187630D01*
X122098100Y-90188850D01*
X122098099Y-90188850D01*
X122357414Y-90265662D01*
X122357418Y-90265663D01*
X122361527Y-90266880D01*
X122365764Y-90267528D01*
X122365767Y-90267529D01*
X122600011Y-90303374D01*
X122637353Y-90309088D01*
X122779400Y-90311319D01*
X122912065Y-90313404D01*
X122912071Y-90313404D01*
X122916356Y-90313471D01*
X123193372Y-90279948D01*
X123463275Y-90209140D01*
X123721072Y-90102357D01*
X123768628Y-90074568D01*
X123958284Y-89963742D01*
X123958286Y-89963740D01*
X123961992Y-89961575D01*
X124181576Y-89789400D01*
X124221415Y-89748290D01*
X124372778Y-89592094D01*
X124375761Y-89589016D01*
X124378294Y-89585568D01*
X124378298Y-89585563D01*
X124538417Y-89367587D01*
X124540955Y-89364132D01*
X124674100Y-89118909D01*
X124772732Y-88857886D01*
X124835027Y-88585891D01*
X124841104Y-88517806D01*
X124859612Y-88310424D01*
X124859832Y-88307959D01*
X124860282Y-88265000D01*
X124858818Y-88243519D01*
X126345830Y-88243519D01*
X126361893Y-88522094D01*
X126362718Y-88526301D01*
X126362719Y-88526306D01*
X126375230Y-88590075D01*
X126415614Y-88795911D01*
X126417001Y-88799961D01*
X126417002Y-88799966D01*
X126438208Y-88861904D01*
X126505999Y-89059904D01*
X126631375Y-89309187D01*
X126633801Y-89312716D01*
X126633804Y-89312722D01*
X126671512Y-89367587D01*
X126789424Y-89539149D01*
X126977219Y-89745534D01*
X127191287Y-89924522D01*
X127194928Y-89926806D01*
X127424025Y-90070519D01*
X127424029Y-90070521D01*
X127427665Y-90072802D01*
X127493122Y-90102357D01*
X127678068Y-90185864D01*
X127678072Y-90185866D01*
X127681980Y-90187630D01*
X127686100Y-90188850D01*
X127686099Y-90188850D01*
X127945414Y-90265662D01*
X127945418Y-90265663D01*
X127949527Y-90266880D01*
X127953764Y-90267528D01*
X127953767Y-90267529D01*
X128188011Y-90303374D01*
X128225353Y-90309088D01*
X128367400Y-90311319D01*
X128500065Y-90313404D01*
X128500071Y-90313404D01*
X128504356Y-90313471D01*
X128781372Y-90279948D01*
X129051275Y-90209140D01*
X129309072Y-90102357D01*
X129356628Y-90074568D01*
X129546284Y-89963742D01*
X129546286Y-89963740D01*
X129549992Y-89961575D01*
X129769576Y-89789400D01*
X129809415Y-89748290D01*
X129960778Y-89592094D01*
X129963761Y-89589016D01*
X129966294Y-89585568D01*
X129966298Y-89585563D01*
X130126417Y-89367587D01*
X130128955Y-89364132D01*
X130262100Y-89118909D01*
X130360732Y-88857886D01*
X130423027Y-88585891D01*
X130429104Y-88517806D01*
X130447612Y-88310424D01*
X130447832Y-88307959D01*
X130448282Y-88265000D01*
X130446818Y-88243519D01*
X136505830Y-88243519D01*
X136521893Y-88522094D01*
X136522718Y-88526301D01*
X136522719Y-88526306D01*
X136535230Y-88590075D01*
X136575614Y-88795911D01*
X136577001Y-88799961D01*
X136577002Y-88799966D01*
X136598208Y-88861904D01*
X136665999Y-89059904D01*
X136791375Y-89309187D01*
X136793801Y-89312716D01*
X136793804Y-89312722D01*
X136831512Y-89367587D01*
X136949424Y-89539149D01*
X137137219Y-89745534D01*
X137351287Y-89924522D01*
X137354928Y-89926806D01*
X137584025Y-90070519D01*
X137584029Y-90070521D01*
X137587665Y-90072802D01*
X137653122Y-90102357D01*
X137838068Y-90185864D01*
X137838072Y-90185866D01*
X137841980Y-90187630D01*
X137846100Y-90188850D01*
X137846099Y-90188850D01*
X138105414Y-90265662D01*
X138105418Y-90265663D01*
X138109527Y-90266880D01*
X138113764Y-90267528D01*
X138113767Y-90267529D01*
X138348011Y-90303374D01*
X138385353Y-90309088D01*
X138527400Y-90311319D01*
X138660065Y-90313404D01*
X138660071Y-90313404D01*
X138664356Y-90313471D01*
X138941372Y-90279948D01*
X139211275Y-90209140D01*
X139469072Y-90102357D01*
X139516628Y-90074568D01*
X139706284Y-89963742D01*
X139706286Y-89963740D01*
X139709992Y-89961575D01*
X139929576Y-89789400D01*
X139969415Y-89748290D01*
X140120778Y-89592094D01*
X140123761Y-89589016D01*
X140126294Y-89585568D01*
X140126298Y-89585563D01*
X140286417Y-89367587D01*
X140288955Y-89364132D01*
X140422100Y-89118909D01*
X140520732Y-88857886D01*
X140583027Y-88585891D01*
X140589104Y-88517806D01*
X140607612Y-88310424D01*
X140607832Y-88307959D01*
X140608282Y-88265000D01*
X140606818Y-88243519D01*
X142093830Y-88243519D01*
X142109893Y-88522094D01*
X142110718Y-88526301D01*
X142110719Y-88526306D01*
X142123230Y-88590075D01*
X142163614Y-88795911D01*
X142165001Y-88799961D01*
X142165002Y-88799966D01*
X142186208Y-88861904D01*
X142253999Y-89059904D01*
X142379375Y-89309187D01*
X142381801Y-89312716D01*
X142381804Y-89312722D01*
X142419512Y-89367587D01*
X142537424Y-89539149D01*
X142725219Y-89745534D01*
X142939287Y-89924522D01*
X142942928Y-89926806D01*
X143172025Y-90070519D01*
X143172029Y-90070521D01*
X143175665Y-90072802D01*
X143241122Y-90102357D01*
X143426068Y-90185864D01*
X143426072Y-90185866D01*
X143429980Y-90187630D01*
X143434100Y-90188850D01*
X143434099Y-90188850D01*
X143693414Y-90265662D01*
X143693418Y-90265663D01*
X143697527Y-90266880D01*
X143701764Y-90267528D01*
X143701767Y-90267529D01*
X143936011Y-90303374D01*
X143973353Y-90309088D01*
X144115400Y-90311319D01*
X144248065Y-90313404D01*
X144248071Y-90313404D01*
X144252356Y-90313471D01*
X144529372Y-90279948D01*
X144799275Y-90209140D01*
X145057072Y-90102357D01*
X145104628Y-90074568D01*
X145294284Y-89963742D01*
X145294286Y-89963740D01*
X145297992Y-89961575D01*
X145517576Y-89789400D01*
X145557415Y-89748290D01*
X145708778Y-89592094D01*
X145711761Y-89589016D01*
X145714294Y-89585568D01*
X145714298Y-89585563D01*
X145874417Y-89367587D01*
X145876955Y-89364132D01*
X146010100Y-89118909D01*
X146108732Y-88857886D01*
X146171027Y-88585891D01*
X146177104Y-88517806D01*
X146195612Y-88310424D01*
X146195832Y-88307959D01*
X146196282Y-88265000D01*
X146194818Y-88243519D01*
X152253830Y-88243519D01*
X152269893Y-88522094D01*
X152270718Y-88526301D01*
X152270719Y-88526306D01*
X152283230Y-88590075D01*
X152323614Y-88795911D01*
X152325001Y-88799961D01*
X152325002Y-88799966D01*
X152346208Y-88861904D01*
X152413999Y-89059904D01*
X152539375Y-89309187D01*
X152541801Y-89312716D01*
X152541804Y-89312722D01*
X152579512Y-89367587D01*
X152697424Y-89539149D01*
X152885219Y-89745534D01*
X153099287Y-89924522D01*
X153102928Y-89926806D01*
X153332025Y-90070519D01*
X153332029Y-90070521D01*
X153335665Y-90072802D01*
X153401122Y-90102357D01*
X153586068Y-90185864D01*
X153586072Y-90185866D01*
X153589980Y-90187630D01*
X153594100Y-90188850D01*
X153594099Y-90188850D01*
X153853414Y-90265662D01*
X153853418Y-90265663D01*
X153857527Y-90266880D01*
X153861764Y-90267528D01*
X153861767Y-90267529D01*
X154096011Y-90303374D01*
X154133353Y-90309088D01*
X154275400Y-90311319D01*
X154408065Y-90313404D01*
X154408071Y-90313404D01*
X154412356Y-90313471D01*
X154689372Y-90279948D01*
X154959275Y-90209140D01*
X155217072Y-90102357D01*
X155264628Y-90074568D01*
X155454284Y-89963742D01*
X155454286Y-89963740D01*
X155457992Y-89961575D01*
X155677576Y-89789400D01*
X155717415Y-89748290D01*
X155868778Y-89592094D01*
X155871761Y-89589016D01*
X155874294Y-89585568D01*
X155874298Y-89585563D01*
X156034417Y-89367587D01*
X156036955Y-89364132D01*
X156170100Y-89118909D01*
X156268732Y-88857886D01*
X156331027Y-88585891D01*
X156337104Y-88517806D01*
X156355612Y-88310424D01*
X156355832Y-88307959D01*
X156356282Y-88265000D01*
X156354818Y-88243519D01*
X156337595Y-87990886D01*
X156337594Y-87990880D01*
X156337303Y-87986609D01*
X156280718Y-87713370D01*
X156274888Y-87696904D01*
X156189005Y-87454379D01*
X156187574Y-87450338D01*
X156059593Y-87202381D01*
X155899146Y-86974086D01*
X155896221Y-86970938D01*
X155712120Y-86772823D01*
X155712117Y-86772821D01*
X155709199Y-86769680D01*
X155705884Y-86766966D01*
X155705880Y-86766963D01*
X155496587Y-86595659D01*
X155493269Y-86592943D01*
X155255351Y-86447147D01*
X155237924Y-86439497D01*
X155003775Y-86336712D01*
X155003771Y-86336711D01*
X154999847Y-86334988D01*
X154731486Y-86258543D01*
X154524809Y-86229129D01*
X154459484Y-86219832D01*
X154459482Y-86219832D01*
X154455232Y-86219227D01*
X154308137Y-86218457D01*
X154180485Y-86217788D01*
X154180479Y-86217788D01*
X154176199Y-86217766D01*
X154171955Y-86218325D01*
X154171951Y-86218325D01*
X154050789Y-86234276D01*
X153899549Y-86254187D01*
X153895409Y-86255320D01*
X153895407Y-86255320D01*
X153798933Y-86281713D01*
X153630402Y-86327818D01*
X153373737Y-86437294D01*
X153229136Y-86523836D01*
X153137988Y-86578387D01*
X153137984Y-86578390D01*
X153134306Y-86580591D01*
X152916537Y-86755057D01*
X152724460Y-86957464D01*
X152561630Y-87184065D01*
X152431061Y-87430668D01*
X152429589Y-87434691D01*
X152429587Y-87434695D01*
X152422384Y-87454379D01*
X152335167Y-87692711D01*
X152275723Y-87965343D01*
X152253830Y-88243519D01*
X146194818Y-88243519D01*
X146177595Y-87990886D01*
X146177594Y-87990880D01*
X146177303Y-87986609D01*
X146120718Y-87713370D01*
X146114888Y-87696904D01*
X146029005Y-87454379D01*
X146027574Y-87450338D01*
X145899593Y-87202381D01*
X145739146Y-86974086D01*
X145736221Y-86970938D01*
X145552120Y-86772823D01*
X145552117Y-86772821D01*
X145549199Y-86769680D01*
X145545884Y-86766966D01*
X145545880Y-86766963D01*
X145336587Y-86595659D01*
X145333269Y-86592943D01*
X145095351Y-86447147D01*
X145077924Y-86439497D01*
X144843775Y-86336712D01*
X144843771Y-86336711D01*
X144839847Y-86334988D01*
X144571486Y-86258543D01*
X144364809Y-86229129D01*
X144299484Y-86219832D01*
X144299482Y-86219832D01*
X144295232Y-86219227D01*
X144148137Y-86218457D01*
X144020485Y-86217788D01*
X144020479Y-86217788D01*
X144016199Y-86217766D01*
X144011955Y-86218325D01*
X144011951Y-86218325D01*
X143890789Y-86234276D01*
X143739549Y-86254187D01*
X143735409Y-86255320D01*
X143735407Y-86255320D01*
X143638933Y-86281713D01*
X143470402Y-86327818D01*
X143213737Y-86437294D01*
X143069136Y-86523836D01*
X142977988Y-86578387D01*
X142977984Y-86578390D01*
X142974306Y-86580591D01*
X142756537Y-86755057D01*
X142564460Y-86957464D01*
X142401630Y-87184065D01*
X142271061Y-87430668D01*
X142269589Y-87434691D01*
X142269587Y-87434695D01*
X142262384Y-87454379D01*
X142175167Y-87692711D01*
X142115723Y-87965343D01*
X142093830Y-88243519D01*
X140606818Y-88243519D01*
X140589595Y-87990886D01*
X140589594Y-87990880D01*
X140589303Y-87986609D01*
X140532718Y-87713370D01*
X140526888Y-87696904D01*
X140441005Y-87454379D01*
X140439574Y-87450338D01*
X140311593Y-87202381D01*
X140151146Y-86974086D01*
X140148221Y-86970938D01*
X139964120Y-86772823D01*
X139964117Y-86772821D01*
X139961199Y-86769680D01*
X139957884Y-86766966D01*
X139957880Y-86766963D01*
X139748587Y-86595659D01*
X139745269Y-86592943D01*
X139507351Y-86447147D01*
X139489924Y-86439497D01*
X139255775Y-86336712D01*
X139255771Y-86336711D01*
X139251847Y-86334988D01*
X138983486Y-86258543D01*
X138776809Y-86229129D01*
X138711484Y-86219832D01*
X138711482Y-86219832D01*
X138707232Y-86219227D01*
X138560137Y-86218457D01*
X138432485Y-86217788D01*
X138432479Y-86217788D01*
X138428199Y-86217766D01*
X138423955Y-86218325D01*
X138423951Y-86218325D01*
X138302789Y-86234276D01*
X138151549Y-86254187D01*
X138147409Y-86255320D01*
X138147407Y-86255320D01*
X138050933Y-86281713D01*
X137882402Y-86327818D01*
X137625737Y-86437294D01*
X137481136Y-86523836D01*
X137389988Y-86578387D01*
X137389984Y-86578390D01*
X137386306Y-86580591D01*
X137168537Y-86755057D01*
X136976460Y-86957464D01*
X136813630Y-87184065D01*
X136683061Y-87430668D01*
X136681589Y-87434691D01*
X136681587Y-87434695D01*
X136674384Y-87454379D01*
X136587167Y-87692711D01*
X136527723Y-87965343D01*
X136505830Y-88243519D01*
X130446818Y-88243519D01*
X130429595Y-87990886D01*
X130429594Y-87990880D01*
X130429303Y-87986609D01*
X130372718Y-87713370D01*
X130366888Y-87696904D01*
X130281005Y-87454379D01*
X130279574Y-87450338D01*
X130151593Y-87202381D01*
X129991146Y-86974086D01*
X129988221Y-86970938D01*
X129804120Y-86772823D01*
X129804117Y-86772821D01*
X129801199Y-86769680D01*
X129797884Y-86766966D01*
X129797880Y-86766963D01*
X129588587Y-86595659D01*
X129585269Y-86592943D01*
X129347351Y-86447147D01*
X129329924Y-86439497D01*
X129095775Y-86336712D01*
X129095771Y-86336711D01*
X129091847Y-86334988D01*
X128823486Y-86258543D01*
X128616809Y-86229129D01*
X128551484Y-86219832D01*
X128551482Y-86219832D01*
X128547232Y-86219227D01*
X128400137Y-86218457D01*
X128272485Y-86217788D01*
X128272479Y-86217788D01*
X128268199Y-86217766D01*
X128263955Y-86218325D01*
X128263951Y-86218325D01*
X128142789Y-86234276D01*
X127991549Y-86254187D01*
X127987409Y-86255320D01*
X127987407Y-86255320D01*
X127890933Y-86281713D01*
X127722402Y-86327818D01*
X127465737Y-86437294D01*
X127321136Y-86523836D01*
X127229988Y-86578387D01*
X127229984Y-86578390D01*
X127226306Y-86580591D01*
X127008537Y-86755057D01*
X126816460Y-86957464D01*
X126653630Y-87184065D01*
X126523061Y-87430668D01*
X126521589Y-87434691D01*
X126521587Y-87434695D01*
X126514384Y-87454379D01*
X126427167Y-87692711D01*
X126367723Y-87965343D01*
X126345830Y-88243519D01*
X124858818Y-88243519D01*
X124841595Y-87990886D01*
X124841594Y-87990880D01*
X124841303Y-87986609D01*
X124784718Y-87713370D01*
X124778888Y-87696904D01*
X124693005Y-87454379D01*
X124691574Y-87450338D01*
X124563593Y-87202381D01*
X124403146Y-86974086D01*
X124400221Y-86970938D01*
X124216120Y-86772823D01*
X124216117Y-86772821D01*
X124213199Y-86769680D01*
X124209884Y-86766966D01*
X124209880Y-86766963D01*
X124000587Y-86595659D01*
X123997269Y-86592943D01*
X123759351Y-86447147D01*
X123741924Y-86439497D01*
X123507775Y-86336712D01*
X123507771Y-86336711D01*
X123503847Y-86334988D01*
X123235486Y-86258543D01*
X123028809Y-86229129D01*
X122963484Y-86219832D01*
X122963482Y-86219832D01*
X122959232Y-86219227D01*
X122812137Y-86218457D01*
X122684485Y-86217788D01*
X122684479Y-86217788D01*
X122680199Y-86217766D01*
X122675955Y-86218325D01*
X122675951Y-86218325D01*
X122554789Y-86234276D01*
X122403549Y-86254187D01*
X122399409Y-86255320D01*
X122399407Y-86255320D01*
X122302933Y-86281713D01*
X122134402Y-86327818D01*
X121877737Y-86437294D01*
X121733136Y-86523836D01*
X121641988Y-86578387D01*
X121641984Y-86578390D01*
X121638306Y-86580591D01*
X121420537Y-86755057D01*
X121228460Y-86957464D01*
X121065630Y-87184065D01*
X120935061Y-87430668D01*
X120933589Y-87434691D01*
X120933587Y-87434695D01*
X120926384Y-87454379D01*
X120839167Y-87692711D01*
X120779723Y-87965343D01*
X120757830Y-88243519D01*
X114698818Y-88243519D01*
X114681595Y-87990886D01*
X114681594Y-87990880D01*
X114681303Y-87986609D01*
X114624718Y-87713370D01*
X114618888Y-87696904D01*
X114533005Y-87454379D01*
X114531574Y-87450338D01*
X114403593Y-87202381D01*
X114243146Y-86974086D01*
X114240221Y-86970938D01*
X114056120Y-86772823D01*
X114056117Y-86772821D01*
X114053199Y-86769680D01*
X114049884Y-86766966D01*
X114049880Y-86766963D01*
X113840587Y-86595659D01*
X113837269Y-86592943D01*
X113599351Y-86447147D01*
X113581924Y-86439497D01*
X113347775Y-86336712D01*
X113347771Y-86336711D01*
X113343847Y-86334988D01*
X113075486Y-86258543D01*
X112868809Y-86229129D01*
X112803484Y-86219832D01*
X112803482Y-86219832D01*
X112799232Y-86219227D01*
X112652137Y-86218457D01*
X112524485Y-86217788D01*
X112524479Y-86217788D01*
X112520199Y-86217766D01*
X112515955Y-86218325D01*
X112515951Y-86218325D01*
X112394789Y-86234276D01*
X112243549Y-86254187D01*
X112239409Y-86255320D01*
X112239407Y-86255320D01*
X112142933Y-86281713D01*
X111974402Y-86327818D01*
X111717737Y-86437294D01*
X111573136Y-86523836D01*
X111481988Y-86578387D01*
X111481984Y-86578390D01*
X111478306Y-86580591D01*
X111260537Y-86755057D01*
X111068460Y-86957464D01*
X110905630Y-87184065D01*
X110775061Y-87430668D01*
X110773589Y-87434691D01*
X110773587Y-87434695D01*
X110766384Y-87454379D01*
X110679167Y-87692711D01*
X110619723Y-87965343D01*
X110597830Y-88243519D01*
X108327000Y-88243519D01*
X108327000Y-81025000D01*
X108347002Y-80956879D01*
X108400658Y-80910386D01*
X108453000Y-80899000D01*
X157608000Y-80899000D01*
X157676121Y-80919002D01*
G37*
%TD.AperFunction*%
M02*
