%TF.GenerationSoftware,KiCad,Pcbnew,(6.0.1)*%
%TF.CreationDate,2022-03-09T16:15:59-05:00*%
%TF.ProjectId,pcb_arduino,7063625f-6172-4647-9569-6e6f2e6b6963,rev?*%
%TF.SameCoordinates,Original*%
%TF.FileFunction,Copper,L2,Bot*%
%TF.FilePolarity,Positive*%
%FSLAX46Y46*%
G04 Gerber Fmt 4.6, Leading zero omitted, Abs format (unit mm)*
G04 Created by KiCad (PCBNEW (6.0.1)) date 2022-03-09 16:15:59*
%MOMM*%
%LPD*%
G01*
G04 APERTURE LIST*
%TA.AperFunction,ComponentPad*%
%ADD10R,1.800000X1.800000*%
%TD*%
%TA.AperFunction,ComponentPad*%
%ADD11C,1.800000*%
%TD*%
%TA.AperFunction,ComponentPad*%
%ADD12R,1.700000X1.700000*%
%TD*%
%TA.AperFunction,ComponentPad*%
%ADD13C,3.076000*%
%TD*%
%TA.AperFunction,ComponentPad*%
%ADD14C,1.478000*%
%TD*%
%TA.AperFunction,ComponentPad*%
%ADD15R,1.478000X1.478000*%
%TD*%
%TA.AperFunction,Conductor*%
%ADD16C,0.200000*%
%TD*%
%TA.AperFunction,Conductor*%
%ADD17C,0.250000*%
%TD*%
G04 APERTURE END LIST*
D10*
%TO.P,LED,1*%
%TO.N,N/C*%
X116459000Y-120269000D03*
D11*
%TO.P,LED,2*%
X116459000Y-118110000D03*
%TO.P,LED,3*%
X116459000Y-115951000D03*
%TO.P,LED,4*%
X116459000Y-113792000D03*
%TD*%
D12*
%TO.P,PIN 50,1*%
%TO.N,N/C*%
X154813000Y-118745000D03*
X154813000Y-118745000D03*
%TD*%
D13*
%TO.P,EEG,S2*%
%TO.N,N/C*%
X122809000Y-88265000D03*
%TO.P,EEG,S1*%
X112649000Y-88265000D03*
D14*
%TO.P,EEG,2*%
X115189000Y-93345000D03*
D15*
%TO.P,EEG,1*%
X117729000Y-93345000D03*
%TD*%
D12*
%TO.P,PIN 6,1*%
%TO.N,N/C*%
X154813000Y-108077000D03*
X154813000Y-108077000D03*
%TD*%
D15*
%TO.P,Footswitch,1*%
%TO.N,N/C*%
X133477000Y-93345000D03*
D14*
%TO.P,Footswitch,2*%
X130937000Y-93345000D03*
D13*
%TO.P,Footswitch,S1*%
X128397000Y-88265000D03*
%TO.P,Footswitch,S2*%
X138557000Y-88265000D03*
%TD*%
D12*
%TO.P,PIN 53,1*%
%TO.N,N/C*%
X154813000Y-115189000D03*
X154813000Y-115189000D03*
%TD*%
%TO.P,GND,1*%
%TO.N,N/C*%
X154813000Y-100965000D03*
X154813000Y-100965000D03*
%TD*%
%TO.P,PIN 7,1*%
%TO.N,N/C*%
X154813000Y-111633000D03*
X154813000Y-111633000D03*
%TD*%
%TO.P,PIN 52,1*%
%TO.N,N/C*%
X154813000Y-122301000D03*
X154813000Y-122301000D03*
%TD*%
%TO.P,PIN 5,1*%
%TO.N,N/C*%
X154813000Y-104521000D03*
X154813000Y-104521000D03*
%TD*%
D15*
%TO.P,Portasync,1*%
%TO.N,N/C*%
X149225000Y-93345000D03*
D14*
%TO.P,Portasync,2*%
X146685000Y-93345000D03*
D13*
%TO.P,Portasync,S1*%
X144145000Y-88265000D03*
%TO.P,Portasync,S2*%
X154305000Y-88265000D03*
%TD*%
D16*
%TO.N,*%
X146685000Y-93345000D02*
X146685000Y-98171000D01*
X130937000Y-99695000D02*
X132207000Y-100965000D01*
X130937000Y-93345000D02*
X130937000Y-99695000D01*
X115189000Y-99949000D02*
X116205000Y-100965000D01*
X116205000Y-100965000D02*
X154813000Y-100965000D01*
X115189000Y-93345000D02*
X115189000Y-99949000D01*
X132207000Y-100965000D02*
X154813000Y-100965000D01*
X146685000Y-98171000D02*
X149479000Y-100965000D01*
D17*
X116459000Y-118110000D02*
X137668000Y-118110000D01*
X137668000Y-118110000D02*
X154813000Y-100965000D01*
D16*
X149479000Y-100965000D02*
X154813000Y-100965000D01*
%TD*%
%TA.AperFunction,NonConductor*%
G36*
X157676121Y-80919002D02*
G01*
X157722614Y-80972658D01*
X157734000Y-81025000D01*
X157734000Y-125096000D01*
X157713998Y-125164121D01*
X157660342Y-125210614D01*
X157608000Y-125222000D01*
X108453000Y-125222000D01*
X108384879Y-125201998D01*
X108338386Y-125148342D01*
X108327000Y-125096000D01*
X108327000Y-123244568D01*
X108673382Y-123244568D01*
X108702208Y-123493699D01*
X108703587Y-123498573D01*
X108703588Y-123498577D01*
X108742526Y-123636181D01*
X108770494Y-123735017D01*
X108772628Y-123739592D01*
X108772630Y-123739599D01*
X108874347Y-123957731D01*
X108876484Y-123962313D01*
X108879326Y-123966494D01*
X108879326Y-123966495D01*
X109014605Y-124165552D01*
X109014608Y-124165556D01*
X109017451Y-124169739D01*
X109020928Y-124173416D01*
X109020929Y-124173417D01*
X109121238Y-124279491D01*
X109189767Y-124351959D01*
X109193793Y-124355037D01*
X109193794Y-124355038D01*
X109384981Y-124501212D01*
X109384985Y-124501215D01*
X109389001Y-124504285D01*
X109610026Y-124622797D01*
X109614807Y-124624443D01*
X109614811Y-124624445D01*
X109840538Y-124702169D01*
X109847156Y-124704448D01*
X109950689Y-124722331D01*
X110090380Y-124746460D01*
X110090386Y-124746461D01*
X110094290Y-124747135D01*
X110098251Y-124747315D01*
X110098252Y-124747315D01*
X110122931Y-124748436D01*
X110122950Y-124748436D01*
X110124350Y-124748500D01*
X110299015Y-124748500D01*
X110301523Y-124748298D01*
X110301528Y-124748298D01*
X110480944Y-124733863D01*
X110480949Y-124733862D01*
X110485985Y-124733457D01*
X110490893Y-124732252D01*
X110490896Y-124732251D01*
X110724625Y-124674841D01*
X110729539Y-124673634D01*
X110734191Y-124671659D01*
X110734195Y-124671658D01*
X110955741Y-124577617D01*
X110955742Y-124577617D01*
X110960396Y-124575641D01*
X111172615Y-124442000D01*
X111360738Y-124276147D01*
X111519924Y-124082351D01*
X111646078Y-123865596D01*
X111735955Y-123631461D01*
X111742191Y-123601615D01*
X111786206Y-123390921D01*
X111787241Y-123385967D01*
X111795725Y-123199134D01*
X153454500Y-123199134D01*
X153461255Y-123261316D01*
X153512385Y-123397705D01*
X153599739Y-123514261D01*
X153716295Y-123601615D01*
X153852684Y-123652745D01*
X153914866Y-123659500D01*
X155711134Y-123659500D01*
X155773316Y-123652745D01*
X155909705Y-123601615D01*
X156026261Y-123514261D01*
X156113615Y-123397705D01*
X156164745Y-123261316D01*
X156171500Y-123199134D01*
X156171500Y-121402866D01*
X156164745Y-121340684D01*
X156113615Y-121204295D01*
X156026261Y-121087739D01*
X155909705Y-121000385D01*
X155773316Y-120949255D01*
X155711134Y-120942500D01*
X153914866Y-120942500D01*
X153852684Y-120949255D01*
X153716295Y-121000385D01*
X153599739Y-121087739D01*
X153512385Y-121204295D01*
X153461255Y-121340684D01*
X153454500Y-121402866D01*
X153454500Y-123199134D01*
X111795725Y-123199134D01*
X111798618Y-123135432D01*
X111769792Y-122886301D01*
X111730810Y-122748539D01*
X111702884Y-122649852D01*
X111702883Y-122649850D01*
X111701506Y-122644983D01*
X111699372Y-122640408D01*
X111699370Y-122640401D01*
X111597653Y-122422269D01*
X111597651Y-122422265D01*
X111595516Y-122417687D01*
X111592674Y-122413505D01*
X111457395Y-122214448D01*
X111457392Y-122214444D01*
X111454549Y-122210261D01*
X111353925Y-122103853D01*
X111285713Y-122031721D01*
X111282233Y-122028041D01*
X111278206Y-122024962D01*
X111087019Y-121878788D01*
X111087015Y-121878785D01*
X111082999Y-121875715D01*
X110861974Y-121757203D01*
X110857193Y-121755557D01*
X110857189Y-121755555D01*
X110629633Y-121677201D01*
X110624844Y-121675552D01*
X110521311Y-121657669D01*
X110381620Y-121633540D01*
X110381614Y-121633539D01*
X110377710Y-121632865D01*
X110373749Y-121632685D01*
X110373748Y-121632685D01*
X110349069Y-121631564D01*
X110349050Y-121631564D01*
X110347650Y-121631500D01*
X110172985Y-121631500D01*
X110170477Y-121631702D01*
X110170472Y-121631702D01*
X109991056Y-121646137D01*
X109991051Y-121646138D01*
X109986015Y-121646543D01*
X109981107Y-121647748D01*
X109981104Y-121647749D01*
X109749326Y-121704680D01*
X109742461Y-121706366D01*
X109737809Y-121708341D01*
X109737805Y-121708342D01*
X109617061Y-121759595D01*
X109511604Y-121804359D01*
X109299385Y-121938000D01*
X109111262Y-122103853D01*
X108952076Y-122297649D01*
X108825922Y-122514404D01*
X108736045Y-122748539D01*
X108684759Y-122994033D01*
X108673382Y-123244568D01*
X108327000Y-123244568D01*
X108327000Y-99368568D01*
X108673382Y-99368568D01*
X108673963Y-99373588D01*
X108673963Y-99373592D01*
X108686259Y-99479856D01*
X108702208Y-99617699D01*
X108703587Y-99622573D01*
X108703588Y-99622577D01*
X108742169Y-99758919D01*
X108770494Y-99859017D01*
X108772628Y-99863592D01*
X108772630Y-99863599D01*
X108869009Y-100070283D01*
X108876484Y-100086313D01*
X108879326Y-100090494D01*
X108879326Y-100090495D01*
X109014605Y-100289552D01*
X109014608Y-100289556D01*
X109017451Y-100293739D01*
X109020928Y-100297416D01*
X109020929Y-100297417D01*
X109120255Y-100402452D01*
X109189767Y-100475959D01*
X109193793Y-100479037D01*
X109193794Y-100479038D01*
X109384981Y-100625212D01*
X109384985Y-100625215D01*
X109389001Y-100628285D01*
X109610026Y-100746797D01*
X109614807Y-100748443D01*
X109614811Y-100748445D01*
X109840538Y-100826169D01*
X109847156Y-100828448D01*
X109950689Y-100846331D01*
X110090380Y-100870460D01*
X110090386Y-100870461D01*
X110094290Y-100871135D01*
X110098251Y-100871315D01*
X110098252Y-100871315D01*
X110122931Y-100872436D01*
X110122950Y-100872436D01*
X110124350Y-100872500D01*
X110299015Y-100872500D01*
X110301523Y-100872298D01*
X110301528Y-100872298D01*
X110480944Y-100857863D01*
X110480949Y-100857862D01*
X110485985Y-100857457D01*
X110490893Y-100856252D01*
X110490896Y-100856251D01*
X110724625Y-100798841D01*
X110729539Y-100797634D01*
X110734191Y-100795659D01*
X110734195Y-100795658D01*
X110955741Y-100701617D01*
X110955742Y-100701617D01*
X110960396Y-100699641D01*
X111172615Y-100566000D01*
X111360738Y-100400147D01*
X111519924Y-100206351D01*
X111646078Y-99989596D01*
X111735955Y-99755461D01*
X111740469Y-99733856D01*
X111786206Y-99514921D01*
X111787241Y-99509967D01*
X111788609Y-99479856D01*
X111793662Y-99368568D01*
X111798618Y-99259432D01*
X111769792Y-99010301D01*
X111730810Y-98872539D01*
X111702884Y-98773852D01*
X111702883Y-98773850D01*
X111701506Y-98768983D01*
X111699372Y-98764408D01*
X111699370Y-98764401D01*
X111597653Y-98546269D01*
X111597651Y-98546265D01*
X111595516Y-98541687D01*
X111592674Y-98537505D01*
X111457395Y-98338448D01*
X111457392Y-98338444D01*
X111454549Y-98334261D01*
X111353925Y-98227853D01*
X111285713Y-98155721D01*
X111282233Y-98152041D01*
X111265582Y-98139310D01*
X111087019Y-98002788D01*
X111087015Y-98002785D01*
X111082999Y-97999715D01*
X110861974Y-97881203D01*
X110857193Y-97879557D01*
X110857189Y-97879555D01*
X110629633Y-97801201D01*
X110624844Y-97799552D01*
X110521311Y-97781669D01*
X110381620Y-97757540D01*
X110381614Y-97757539D01*
X110377710Y-97756865D01*
X110373749Y-97756685D01*
X110373748Y-97756685D01*
X110349069Y-97755564D01*
X110349050Y-97755564D01*
X110347650Y-97755500D01*
X110172985Y-97755500D01*
X110170477Y-97755702D01*
X110170472Y-97755702D01*
X109991056Y-97770137D01*
X109991051Y-97770138D01*
X109986015Y-97770543D01*
X109981107Y-97771748D01*
X109981104Y-97771749D01*
X109749326Y-97828680D01*
X109742461Y-97830366D01*
X109737809Y-97832341D01*
X109737805Y-97832342D01*
X109617061Y-97883595D01*
X109511604Y-97928359D01*
X109299385Y-98062000D01*
X109111262Y-98227853D01*
X108952076Y-98421649D01*
X108825922Y-98638404D01*
X108736045Y-98872539D01*
X108684759Y-99118033D01*
X108673382Y-99368568D01*
X108327000Y-99368568D01*
X108327000Y-93345000D01*
X113936735Y-93345000D01*
X113955760Y-93562454D01*
X114012256Y-93773300D01*
X114104507Y-93971132D01*
X114229709Y-94149940D01*
X114384060Y-94304291D01*
X114388570Y-94307449D01*
X114388576Y-94307454D01*
X114526770Y-94404218D01*
X114571099Y-94459675D01*
X114580500Y-94507431D01*
X114580500Y-99900864D01*
X114579422Y-99917307D01*
X114575250Y-99949000D01*
X114580500Y-99988880D01*
X114580500Y-99988885D01*
X114593327Y-100086313D01*
X114596162Y-100107851D01*
X114599322Y-100115481D01*
X114599323Y-100115483D01*
X114610272Y-100141916D01*
X114657476Y-100255876D01*
X114662503Y-100262427D01*
X114662504Y-100262429D01*
X114730520Y-100351069D01*
X114730526Y-100351075D01*
X114755013Y-100382987D01*
X114761568Y-100388017D01*
X114780379Y-100402452D01*
X114792770Y-100413319D01*
X115740685Y-101361234D01*
X115751552Y-101373625D01*
X115771013Y-101398987D01*
X115802925Y-101423474D01*
X115802928Y-101423477D01*
X115898124Y-101496524D01*
X116046149Y-101557838D01*
X116054336Y-101558916D01*
X116054337Y-101558916D01*
X116065542Y-101560391D01*
X116096738Y-101564498D01*
X116165115Y-101573500D01*
X116165118Y-101573500D01*
X116165126Y-101573501D01*
X116196811Y-101577672D01*
X116205000Y-101578750D01*
X116236693Y-101574578D01*
X116253136Y-101573500D01*
X132158864Y-101573500D01*
X132175311Y-101574578D01*
X132207000Y-101578750D01*
X132238693Y-101574578D01*
X132255136Y-101573500D01*
X149430856Y-101573500D01*
X149447303Y-101574578D01*
X149479000Y-101578751D01*
X149510699Y-101574578D01*
X149527144Y-101573500D01*
X153004406Y-101573500D01*
X153072527Y-101593502D01*
X153119020Y-101647158D01*
X153129124Y-101717432D01*
X153099630Y-101782012D01*
X153093501Y-101788595D01*
X137442500Y-117439595D01*
X137380188Y-117473621D01*
X137353405Y-117476500D01*
X117795359Y-117476500D01*
X117727238Y-117456498D01*
X117689567Y-117418940D01*
X117581574Y-117252009D01*
X117578764Y-117247665D01*
X117457476Y-117114371D01*
X117426424Y-117050526D01*
X117434820Y-116980027D01*
X117461731Y-116940321D01*
X117531637Y-116870660D01*
X117531647Y-116870648D01*
X117535303Y-116867005D01*
X117670458Y-116678917D01*
X117717641Y-116583450D01*
X117770784Y-116475922D01*
X117770785Y-116475920D01*
X117773078Y-116471280D01*
X117840408Y-116249671D01*
X117870640Y-116020041D01*
X117872327Y-115951000D01*
X117866032Y-115874434D01*
X117853773Y-115725318D01*
X117853772Y-115725312D01*
X117853349Y-115720167D01*
X117796925Y-115495533D01*
X117794866Y-115490797D01*
X117706630Y-115287868D01*
X117706628Y-115287865D01*
X117704570Y-115283131D01*
X117578764Y-115088665D01*
X117457476Y-114955371D01*
X117426424Y-114891526D01*
X117434820Y-114821027D01*
X117461731Y-114781321D01*
X117531637Y-114711660D01*
X117531647Y-114711648D01*
X117535303Y-114708005D01*
X117670458Y-114519917D01*
X117717641Y-114424450D01*
X117770784Y-114316922D01*
X117770785Y-114316920D01*
X117773078Y-114312280D01*
X117840408Y-114090671D01*
X117870640Y-113861041D01*
X117870722Y-113857691D01*
X117872245Y-113795365D01*
X117872245Y-113795361D01*
X117872327Y-113792000D01*
X117866032Y-113715434D01*
X117853773Y-113566318D01*
X117853772Y-113566312D01*
X117853349Y-113561167D01*
X117796925Y-113336533D01*
X117794866Y-113331797D01*
X117706630Y-113128868D01*
X117706628Y-113128865D01*
X117704570Y-113124131D01*
X117578764Y-112929665D01*
X117422887Y-112758358D01*
X117418836Y-112755159D01*
X117418832Y-112755155D01*
X117245177Y-112618011D01*
X117245172Y-112618008D01*
X117241123Y-112614810D01*
X117236607Y-112612317D01*
X117236604Y-112612315D01*
X117042879Y-112505373D01*
X117042875Y-112505371D01*
X117038355Y-112502876D01*
X117033486Y-112501152D01*
X117033482Y-112501150D01*
X116824903Y-112427288D01*
X116824899Y-112427287D01*
X116820028Y-112425562D01*
X116814935Y-112424655D01*
X116814932Y-112424654D01*
X116597095Y-112385851D01*
X116597089Y-112385850D01*
X116592006Y-112384945D01*
X116519096Y-112384054D01*
X116365581Y-112382179D01*
X116365579Y-112382179D01*
X116360411Y-112382116D01*
X116131464Y-112417150D01*
X115911314Y-112489106D01*
X115906726Y-112491494D01*
X115906722Y-112491496D01*
X115824053Y-112534531D01*
X115705872Y-112596052D01*
X115701739Y-112599155D01*
X115701736Y-112599157D01*
X115676625Y-112618011D01*
X115520655Y-112735117D01*
X115360639Y-112902564D01*
X115357725Y-112906836D01*
X115357724Y-112906837D01*
X115342152Y-112929665D01*
X115230119Y-113093899D01*
X115132602Y-113303981D01*
X115070707Y-113527169D01*
X115046095Y-113757469D01*
X115046392Y-113762622D01*
X115046392Y-113762625D01*
X115053643Y-113888385D01*
X115059427Y-113988697D01*
X115060564Y-113993743D01*
X115060565Y-113993749D01*
X115084669Y-114100703D01*
X115110346Y-114214642D01*
X115112288Y-114219424D01*
X115112289Y-114219428D01*
X115195540Y-114424450D01*
X115197484Y-114429237D01*
X115318501Y-114626719D01*
X115321882Y-114630622D01*
X115461048Y-114791280D01*
X115490530Y-114855865D01*
X115480415Y-114926138D01*
X115456904Y-114960828D01*
X115421689Y-114997679D01*
X115360639Y-115061564D01*
X115357725Y-115065836D01*
X115357724Y-115065837D01*
X115342152Y-115088665D01*
X115230119Y-115252899D01*
X115132602Y-115462981D01*
X115070707Y-115686169D01*
X115046095Y-115916469D01*
X115046392Y-115921622D01*
X115046392Y-115921625D01*
X115052067Y-116020041D01*
X115059427Y-116147697D01*
X115060564Y-116152743D01*
X115060565Y-116152749D01*
X115092148Y-116292891D01*
X115110346Y-116373642D01*
X115112288Y-116378424D01*
X115112289Y-116378428D01*
X115180942Y-116547500D01*
X115197484Y-116588237D01*
X115318501Y-116785719D01*
X115321882Y-116789622D01*
X115461048Y-116950280D01*
X115490530Y-117014865D01*
X115480415Y-117085138D01*
X115456904Y-117119828D01*
X115421689Y-117156679D01*
X115360639Y-117220564D01*
X115357725Y-117224836D01*
X115357724Y-117224837D01*
X115342152Y-117247665D01*
X115230119Y-117411899D01*
X115132602Y-117621981D01*
X115070707Y-117845169D01*
X115046095Y-118075469D01*
X115059427Y-118306697D01*
X115060564Y-118311743D01*
X115060565Y-118311749D01*
X115092741Y-118454523D01*
X115110346Y-118532642D01*
X115112288Y-118537424D01*
X115112289Y-118537428D01*
X115195540Y-118742450D01*
X115197484Y-118747237D01*
X115238197Y-118813674D01*
X115245532Y-118825644D01*
X115264070Y-118894178D01*
X115242614Y-118961854D01*
X115213664Y-118992305D01*
X115195739Y-119005739D01*
X115108385Y-119122295D01*
X115057255Y-119258684D01*
X115050500Y-119320866D01*
X115050500Y-121217134D01*
X115057255Y-121279316D01*
X115108385Y-121415705D01*
X115195739Y-121532261D01*
X115312295Y-121619615D01*
X115448684Y-121670745D01*
X115510866Y-121677500D01*
X117407134Y-121677500D01*
X117469316Y-121670745D01*
X117605705Y-121619615D01*
X117722261Y-121532261D01*
X117809615Y-121415705D01*
X117860745Y-121279316D01*
X117867500Y-121217134D01*
X117867500Y-119643134D01*
X153454500Y-119643134D01*
X153461255Y-119705316D01*
X153512385Y-119841705D01*
X153599739Y-119958261D01*
X153716295Y-120045615D01*
X153852684Y-120096745D01*
X153914866Y-120103500D01*
X155711134Y-120103500D01*
X155773316Y-120096745D01*
X155909705Y-120045615D01*
X156026261Y-119958261D01*
X156113615Y-119841705D01*
X156164745Y-119705316D01*
X156171500Y-119643134D01*
X156171500Y-117846866D01*
X156164745Y-117784684D01*
X156113615Y-117648295D01*
X156026261Y-117531739D01*
X155909705Y-117444385D01*
X155773316Y-117393255D01*
X155711134Y-117386500D01*
X153914866Y-117386500D01*
X153852684Y-117393255D01*
X153716295Y-117444385D01*
X153599739Y-117531739D01*
X153512385Y-117648295D01*
X153461255Y-117784684D01*
X153454500Y-117846866D01*
X153454500Y-119643134D01*
X117867500Y-119643134D01*
X117867500Y-119320866D01*
X117860745Y-119258684D01*
X117809615Y-119122295D01*
X117722261Y-119005739D01*
X117707695Y-118994822D01*
X117665182Y-118937965D01*
X117660156Y-118867147D01*
X117671561Y-118838464D01*
X117670457Y-118837918D01*
X117670458Y-118837917D01*
X117682440Y-118813672D01*
X117730553Y-118761466D01*
X117795397Y-118743500D01*
X137589233Y-118743500D01*
X137600416Y-118744027D01*
X137607909Y-118745702D01*
X137615835Y-118745453D01*
X137615836Y-118745453D01*
X137675986Y-118743562D01*
X137679945Y-118743500D01*
X137707856Y-118743500D01*
X137711791Y-118743003D01*
X137711856Y-118742995D01*
X137723693Y-118742062D01*
X137755951Y-118741048D01*
X137759970Y-118740922D01*
X137767889Y-118740673D01*
X137787343Y-118735021D01*
X137806700Y-118731013D01*
X137818930Y-118729468D01*
X137818931Y-118729468D01*
X137826797Y-118728474D01*
X137834168Y-118725555D01*
X137834170Y-118725555D01*
X137867912Y-118712196D01*
X137879142Y-118708351D01*
X137913983Y-118698229D01*
X137913984Y-118698229D01*
X137921593Y-118696018D01*
X137928412Y-118691985D01*
X137928417Y-118691983D01*
X137939028Y-118685707D01*
X137956776Y-118677012D01*
X137975617Y-118669552D01*
X138011387Y-118643564D01*
X138021307Y-118637048D01*
X138052535Y-118618580D01*
X138052538Y-118618578D01*
X138059362Y-118614542D01*
X138073683Y-118600221D01*
X138088717Y-118587380D01*
X138098694Y-118580131D01*
X138105107Y-118575472D01*
X138133298Y-118541395D01*
X138141288Y-118532616D01*
X140586770Y-116087134D01*
X153454500Y-116087134D01*
X153461255Y-116149316D01*
X153512385Y-116285705D01*
X153599739Y-116402261D01*
X153716295Y-116489615D01*
X153852684Y-116540745D01*
X153914866Y-116547500D01*
X155711134Y-116547500D01*
X155773316Y-116540745D01*
X155909705Y-116489615D01*
X156026261Y-116402261D01*
X156113615Y-116285705D01*
X156164745Y-116149316D01*
X156171500Y-116087134D01*
X156171500Y-114290866D01*
X156164745Y-114228684D01*
X156113615Y-114092295D01*
X156026261Y-113975739D01*
X155909705Y-113888385D01*
X155773316Y-113837255D01*
X155711134Y-113830500D01*
X153914866Y-113830500D01*
X153852684Y-113837255D01*
X153716295Y-113888385D01*
X153599739Y-113975739D01*
X153512385Y-114092295D01*
X153461255Y-114228684D01*
X153454500Y-114290866D01*
X153454500Y-116087134D01*
X140586770Y-116087134D01*
X144142770Y-112531134D01*
X153454500Y-112531134D01*
X153461255Y-112593316D01*
X153512385Y-112729705D01*
X153599739Y-112846261D01*
X153716295Y-112933615D01*
X153852684Y-112984745D01*
X153914866Y-112991500D01*
X155711134Y-112991500D01*
X155773316Y-112984745D01*
X155909705Y-112933615D01*
X156026261Y-112846261D01*
X156113615Y-112729705D01*
X156164745Y-112593316D01*
X156171500Y-112531134D01*
X156171500Y-110734866D01*
X156164745Y-110672684D01*
X156113615Y-110536295D01*
X156026261Y-110419739D01*
X155909705Y-110332385D01*
X155773316Y-110281255D01*
X155711134Y-110274500D01*
X153914866Y-110274500D01*
X153852684Y-110281255D01*
X153716295Y-110332385D01*
X153599739Y-110419739D01*
X153512385Y-110536295D01*
X153461255Y-110672684D01*
X153454500Y-110734866D01*
X153454500Y-112531134D01*
X144142770Y-112531134D01*
X147698770Y-108975134D01*
X153454500Y-108975134D01*
X153461255Y-109037316D01*
X153512385Y-109173705D01*
X153599739Y-109290261D01*
X153716295Y-109377615D01*
X153852684Y-109428745D01*
X153914866Y-109435500D01*
X155711134Y-109435500D01*
X155773316Y-109428745D01*
X155909705Y-109377615D01*
X156026261Y-109290261D01*
X156113615Y-109173705D01*
X156164745Y-109037316D01*
X156171500Y-108975134D01*
X156171500Y-107178866D01*
X156164745Y-107116684D01*
X156113615Y-106980295D01*
X156026261Y-106863739D01*
X155909705Y-106776385D01*
X155773316Y-106725255D01*
X155711134Y-106718500D01*
X153914866Y-106718500D01*
X153852684Y-106725255D01*
X153716295Y-106776385D01*
X153599739Y-106863739D01*
X153512385Y-106980295D01*
X153461255Y-107116684D01*
X153454500Y-107178866D01*
X153454500Y-108975134D01*
X147698770Y-108975134D01*
X153258756Y-103415148D01*
X153321068Y-103381122D01*
X153391883Y-103386187D01*
X153448719Y-103428734D01*
X153473530Y-103495254D01*
X153465832Y-103548475D01*
X153461255Y-103560684D01*
X153454500Y-103622866D01*
X153454500Y-105419134D01*
X153461255Y-105481316D01*
X153512385Y-105617705D01*
X153599739Y-105734261D01*
X153716295Y-105821615D01*
X153852684Y-105872745D01*
X153914866Y-105879500D01*
X155711134Y-105879500D01*
X155773316Y-105872745D01*
X155909705Y-105821615D01*
X156026261Y-105734261D01*
X156113615Y-105617705D01*
X156164745Y-105481316D01*
X156171500Y-105419134D01*
X156171500Y-103622866D01*
X156164745Y-103560684D01*
X156113615Y-103424295D01*
X156026261Y-103307739D01*
X155909705Y-103220385D01*
X155773316Y-103169255D01*
X155711134Y-103162500D01*
X153914866Y-103162500D01*
X153852684Y-103169255D01*
X153840475Y-103173832D01*
X153769668Y-103179017D01*
X153707298Y-103145097D01*
X153673168Y-103082842D01*
X153678113Y-103012018D01*
X153707148Y-102966756D01*
X154313499Y-102360405D01*
X154375811Y-102326379D01*
X154402594Y-102323500D01*
X155711134Y-102323500D01*
X155773316Y-102316745D01*
X155909705Y-102265615D01*
X156026261Y-102178261D01*
X156113615Y-102061705D01*
X156164745Y-101925316D01*
X156171500Y-101863134D01*
X156171500Y-100066866D01*
X156164745Y-100004684D01*
X156113615Y-99868295D01*
X156026261Y-99751739D01*
X155909705Y-99664385D01*
X155773316Y-99613255D01*
X155711134Y-99606500D01*
X153914866Y-99606500D01*
X153852684Y-99613255D01*
X153716295Y-99664385D01*
X153599739Y-99751739D01*
X153512385Y-99868295D01*
X153461255Y-100004684D01*
X153454500Y-100066866D01*
X153454500Y-100230500D01*
X153434498Y-100298621D01*
X153380842Y-100345114D01*
X153328500Y-100356500D01*
X149783239Y-100356500D01*
X149715118Y-100336498D01*
X149694144Y-100319595D01*
X147330405Y-97955856D01*
X147296379Y-97893544D01*
X147293500Y-97866761D01*
X147293500Y-94507431D01*
X147313502Y-94439310D01*
X147347230Y-94404218D01*
X147485424Y-94307454D01*
X147485430Y-94307449D01*
X147489940Y-94304291D01*
X147644291Y-94149940D01*
X147748288Y-94001416D01*
X147803744Y-93957088D01*
X147874363Y-93949779D01*
X147937723Y-93981809D01*
X147973709Y-94043010D01*
X147977500Y-94073687D01*
X147977500Y-94132134D01*
X147984255Y-94194316D01*
X148035385Y-94330705D01*
X148122739Y-94447261D01*
X148239295Y-94534615D01*
X148375684Y-94585745D01*
X148437866Y-94592500D01*
X150012134Y-94592500D01*
X150074316Y-94585745D01*
X150210705Y-94534615D01*
X150327261Y-94447261D01*
X150414615Y-94330705D01*
X150465745Y-94194316D01*
X150472500Y-94132134D01*
X150472500Y-92557866D01*
X150465745Y-92495684D01*
X150414615Y-92359295D01*
X150327261Y-92242739D01*
X150210705Y-92155385D01*
X150074316Y-92104255D01*
X150012134Y-92097500D01*
X148437866Y-92097500D01*
X148375684Y-92104255D01*
X148239295Y-92155385D01*
X148122739Y-92242739D01*
X148035385Y-92359295D01*
X147984255Y-92495684D01*
X147977500Y-92557866D01*
X147977500Y-92616313D01*
X147957498Y-92684434D01*
X147903842Y-92730927D01*
X147833568Y-92741031D01*
X147768988Y-92711537D01*
X147748287Y-92688583D01*
X147697684Y-92616313D01*
X147644291Y-92540060D01*
X147489940Y-92385709D01*
X147485432Y-92382552D01*
X147485429Y-92382550D01*
X147315642Y-92263664D01*
X147315639Y-92263662D01*
X147311133Y-92260507D01*
X147306151Y-92258184D01*
X147306146Y-92258181D01*
X147118282Y-92170579D01*
X147118281Y-92170578D01*
X147113300Y-92168256D01*
X147107992Y-92166834D01*
X147107990Y-92166833D01*
X146907769Y-92113184D01*
X146907767Y-92113184D01*
X146902454Y-92111760D01*
X146685000Y-92092735D01*
X146467546Y-92111760D01*
X146462233Y-92113184D01*
X146462231Y-92113184D01*
X146262010Y-92166833D01*
X146262008Y-92166834D01*
X146256700Y-92168256D01*
X146251720Y-92170578D01*
X146251718Y-92170579D01*
X146063849Y-92258184D01*
X146063846Y-92258186D01*
X146058868Y-92260507D01*
X145880060Y-92385709D01*
X145725709Y-92540060D01*
X145600507Y-92718868D01*
X145598186Y-92723846D01*
X145598184Y-92723849D01*
X145590172Y-92741031D01*
X145508256Y-92916700D01*
X145451760Y-93127546D01*
X145432735Y-93345000D01*
X145451760Y-93562454D01*
X145508256Y-93773300D01*
X145600507Y-93971132D01*
X145725709Y-94149940D01*
X145880060Y-94304291D01*
X145884570Y-94307449D01*
X145884576Y-94307454D01*
X146022770Y-94404218D01*
X146067099Y-94459675D01*
X146076500Y-94507431D01*
X146076500Y-98122864D01*
X146075422Y-98139307D01*
X146071250Y-98171000D01*
X146076500Y-98210880D01*
X146076500Y-98210885D01*
X146078734Y-98227853D01*
X146092162Y-98329851D01*
X146153476Y-98477876D01*
X146158503Y-98484427D01*
X146158504Y-98484429D01*
X146226520Y-98573069D01*
X146226526Y-98573075D01*
X146251013Y-98604987D01*
X146257568Y-98610017D01*
X146276379Y-98624452D01*
X146288770Y-98635319D01*
X147794856Y-100141405D01*
X147828882Y-100203717D01*
X147823817Y-100274532D01*
X147781270Y-100331368D01*
X147714750Y-100356179D01*
X147705761Y-100356500D01*
X132511239Y-100356500D01*
X132443118Y-100336498D01*
X132422144Y-100319595D01*
X131582405Y-99479856D01*
X131548379Y-99417544D01*
X131545500Y-99390761D01*
X131545500Y-94507431D01*
X131565502Y-94439310D01*
X131599230Y-94404218D01*
X131737424Y-94307454D01*
X131737430Y-94307449D01*
X131741940Y-94304291D01*
X131896291Y-94149940D01*
X132000288Y-94001416D01*
X132055744Y-93957088D01*
X132126363Y-93949779D01*
X132189723Y-93981809D01*
X132225709Y-94043010D01*
X132229500Y-94073687D01*
X132229500Y-94132134D01*
X132236255Y-94194316D01*
X132287385Y-94330705D01*
X132374739Y-94447261D01*
X132491295Y-94534615D01*
X132627684Y-94585745D01*
X132689866Y-94592500D01*
X134264134Y-94592500D01*
X134326316Y-94585745D01*
X134462705Y-94534615D01*
X134579261Y-94447261D01*
X134666615Y-94330705D01*
X134717745Y-94194316D01*
X134724500Y-94132134D01*
X134724500Y-92557866D01*
X134717745Y-92495684D01*
X134666615Y-92359295D01*
X134579261Y-92242739D01*
X134462705Y-92155385D01*
X134326316Y-92104255D01*
X134264134Y-92097500D01*
X132689866Y-92097500D01*
X132627684Y-92104255D01*
X132491295Y-92155385D01*
X132374739Y-92242739D01*
X132287385Y-92359295D01*
X132236255Y-92495684D01*
X132229500Y-92557866D01*
X132229500Y-92616313D01*
X132209498Y-92684434D01*
X132155842Y-92730927D01*
X132085568Y-92741031D01*
X132020988Y-92711537D01*
X132000287Y-92688583D01*
X131949684Y-92616313D01*
X131896291Y-92540060D01*
X131741940Y-92385709D01*
X131737432Y-92382552D01*
X131737429Y-92382550D01*
X131567642Y-92263664D01*
X131567639Y-92263662D01*
X131563133Y-92260507D01*
X131558151Y-92258184D01*
X131558146Y-92258181D01*
X131370282Y-92170579D01*
X131370281Y-92170578D01*
X131365300Y-92168256D01*
X131359992Y-92166834D01*
X131359990Y-92166833D01*
X131159769Y-92113184D01*
X131159767Y-92113184D01*
X131154454Y-92111760D01*
X130937000Y-92092735D01*
X130719546Y-92111760D01*
X130714233Y-92113184D01*
X130714231Y-92113184D01*
X130514010Y-92166833D01*
X130514008Y-92166834D01*
X130508700Y-92168256D01*
X130503720Y-92170578D01*
X130503718Y-92170579D01*
X130315849Y-92258184D01*
X130315846Y-92258186D01*
X130310868Y-92260507D01*
X130132060Y-92385709D01*
X129977709Y-92540060D01*
X129852507Y-92718868D01*
X129850186Y-92723846D01*
X129850184Y-92723849D01*
X129842172Y-92741031D01*
X129760256Y-92916700D01*
X129703760Y-93127546D01*
X129684735Y-93345000D01*
X129703760Y-93562454D01*
X129760256Y-93773300D01*
X129852507Y-93971132D01*
X129977709Y-94149940D01*
X130132060Y-94304291D01*
X130136570Y-94307449D01*
X130136576Y-94307454D01*
X130274770Y-94404218D01*
X130319099Y-94459675D01*
X130328500Y-94507431D01*
X130328500Y-99646864D01*
X130327422Y-99663307D01*
X130323250Y-99695000D01*
X130328500Y-99734880D01*
X130328500Y-99734885D01*
X130330719Y-99751739D01*
X130344162Y-99853851D01*
X130405476Y-100001876D01*
X130410503Y-100008427D01*
X130410504Y-100008429D01*
X130478520Y-100097069D01*
X130478526Y-100097075D01*
X130503013Y-100128987D01*
X130509565Y-100134014D01*
X130515405Y-100139855D01*
X130513343Y-100141916D01*
X130546903Y-100187884D01*
X130551120Y-100258755D01*
X130516351Y-100320656D01*
X130453636Y-100353932D01*
X130428329Y-100356500D01*
X116509239Y-100356500D01*
X116441118Y-100336498D01*
X116420144Y-100319595D01*
X115834405Y-99733856D01*
X115800379Y-99671544D01*
X115797500Y-99644761D01*
X115797500Y-94507431D01*
X115817502Y-94439310D01*
X115851230Y-94404218D01*
X115989424Y-94307454D01*
X115989430Y-94307449D01*
X115993940Y-94304291D01*
X116148291Y-94149940D01*
X116252288Y-94001416D01*
X116307744Y-93957088D01*
X116378363Y-93949779D01*
X116441723Y-93981809D01*
X116477709Y-94043010D01*
X116481500Y-94073687D01*
X116481500Y-94132134D01*
X116488255Y-94194316D01*
X116539385Y-94330705D01*
X116626739Y-94447261D01*
X116743295Y-94534615D01*
X116879684Y-94585745D01*
X116941866Y-94592500D01*
X118516134Y-94592500D01*
X118578316Y-94585745D01*
X118714705Y-94534615D01*
X118831261Y-94447261D01*
X118918615Y-94330705D01*
X118969745Y-94194316D01*
X118976500Y-94132134D01*
X118976500Y-92557866D01*
X118969745Y-92495684D01*
X118918615Y-92359295D01*
X118831261Y-92242739D01*
X118714705Y-92155385D01*
X118578316Y-92104255D01*
X118516134Y-92097500D01*
X116941866Y-92097500D01*
X116879684Y-92104255D01*
X116743295Y-92155385D01*
X116626739Y-92242739D01*
X116539385Y-92359295D01*
X116488255Y-92495684D01*
X116481500Y-92557866D01*
X116481500Y-92616313D01*
X116461498Y-92684434D01*
X116407842Y-92730927D01*
X116337568Y-92741031D01*
X116272988Y-92711537D01*
X116252287Y-92688583D01*
X116201684Y-92616313D01*
X116148291Y-92540060D01*
X115993940Y-92385709D01*
X115989432Y-92382552D01*
X115989429Y-92382550D01*
X115819642Y-92263664D01*
X115819639Y-92263662D01*
X115815133Y-92260507D01*
X115810151Y-92258184D01*
X115810146Y-92258181D01*
X115622282Y-92170579D01*
X115622281Y-92170578D01*
X115617300Y-92168256D01*
X115611992Y-92166834D01*
X115611990Y-92166833D01*
X115411769Y-92113184D01*
X115411767Y-92113184D01*
X115406454Y-92111760D01*
X115189000Y-92092735D01*
X114971546Y-92111760D01*
X114966233Y-92113184D01*
X114966231Y-92113184D01*
X114766010Y-92166833D01*
X114766008Y-92166834D01*
X114760700Y-92168256D01*
X114755720Y-92170578D01*
X114755718Y-92170579D01*
X114567849Y-92258184D01*
X114567846Y-92258186D01*
X114562868Y-92260507D01*
X114384060Y-92385709D01*
X114229709Y-92540060D01*
X114104507Y-92718868D01*
X114102186Y-92723846D01*
X114102184Y-92723849D01*
X114094172Y-92741031D01*
X114012256Y-92916700D01*
X113955760Y-93127546D01*
X113936735Y-93345000D01*
X108327000Y-93345000D01*
X108327000Y-88243519D01*
X110597830Y-88243519D01*
X110613893Y-88522094D01*
X110614718Y-88526301D01*
X110614719Y-88526306D01*
X110627230Y-88590075D01*
X110667614Y-88795911D01*
X110669001Y-88799961D01*
X110669002Y-88799966D01*
X110690208Y-88861904D01*
X110757999Y-89059904D01*
X110883375Y-89309187D01*
X110885801Y-89312716D01*
X110885804Y-89312722D01*
X110923512Y-89367587D01*
X111041424Y-89539149D01*
X111229219Y-89745534D01*
X111443287Y-89924522D01*
X111446928Y-89926806D01*
X111676025Y-90070519D01*
X111676029Y-90070521D01*
X111679665Y-90072802D01*
X111745122Y-90102357D01*
X111930068Y-90185864D01*
X111930072Y-90185866D01*
X111933980Y-90187630D01*
X111938100Y-90188850D01*
X111938099Y-90188850D01*
X112197414Y-90265662D01*
X112197418Y-90265663D01*
X112201527Y-90266880D01*
X112205764Y-90267528D01*
X112205767Y-90267529D01*
X112440011Y-90303374D01*
X112477353Y-90309088D01*
X112619400Y-90311319D01*
X112752065Y-90313404D01*
X112752071Y-90313404D01*
X112756356Y-90313471D01*
X113033372Y-90279948D01*
X113303275Y-90209140D01*
X113561072Y-90102357D01*
X113608628Y-90074568D01*
X113798284Y-89963742D01*
X113798286Y-89963740D01*
X113801992Y-89961575D01*
X114021576Y-89789400D01*
X114061415Y-89748290D01*
X114212778Y-89592094D01*
X114215761Y-89589016D01*
X114218294Y-89585568D01*
X114218298Y-89585563D01*
X114378417Y-89367587D01*
X114380955Y-89364132D01*
X114514100Y-89118909D01*
X114612732Y-88857886D01*
X114675027Y-88585891D01*
X114681104Y-88517806D01*
X114699612Y-88310424D01*
X114699832Y-88307959D01*
X114700282Y-88265000D01*
X114698818Y-88243519D01*
X120757830Y-88243519D01*
X120773893Y-88522094D01*
X120774718Y-88526301D01*
X120774719Y-88526306D01*
X120787230Y-88590075D01*
X120827614Y-88795911D01*
X120829001Y-88799961D01*
X120829002Y-88799966D01*
X120850208Y-88861904D01*
X120917999Y-89059904D01*
X121043375Y-89309187D01*
X121045801Y-89312716D01*
X121045804Y-89312722D01*
X121083512Y-89367587D01*
X121201424Y-89539149D01*
X121389219Y-89745534D01*
X121603287Y-89924522D01*
X121606928Y-89926806D01*
X121836025Y-90070519D01*
X121836029Y-90070521D01*
X121839665Y-90072802D01*
X121905122Y-90102357D01*
X122090068Y-90185864D01*
X122090072Y-90185866D01*
X122093980Y-90187630D01*
X122098100Y-90188850D01*
X122098099Y-90188850D01*
X122357414Y-90265662D01*
X122357418Y-90265663D01*
X122361527Y-90266880D01*
X122365764Y-90267528D01*
X122365767Y-90267529D01*
X122600011Y-90303374D01*
X122637353Y-90309088D01*
X122779400Y-90311319D01*
X122912065Y-90313404D01*
X122912071Y-90313404D01*
X122916356Y-90313471D01*
X123193372Y-90279948D01*
X123463275Y-90209140D01*
X123721072Y-90102357D01*
X123768628Y-90074568D01*
X123958284Y-89963742D01*
X123958286Y-89963740D01*
X123961992Y-89961575D01*
X124181576Y-89789400D01*
X124221415Y-89748290D01*
X124372778Y-89592094D01*
X124375761Y-89589016D01*
X124378294Y-89585568D01*
X124378298Y-89585563D01*
X124538417Y-89367587D01*
X124540955Y-89364132D01*
X124674100Y-89118909D01*
X124772732Y-88857886D01*
X124835027Y-88585891D01*
X124841104Y-88517806D01*
X124859612Y-88310424D01*
X124859832Y-88307959D01*
X124860282Y-88265000D01*
X124858818Y-88243519D01*
X126345830Y-88243519D01*
X126361893Y-88522094D01*
X126362718Y-88526301D01*
X126362719Y-88526306D01*
X126375230Y-88590075D01*
X126415614Y-88795911D01*
X126417001Y-88799961D01*
X126417002Y-88799966D01*
X126438208Y-88861904D01*
X126505999Y-89059904D01*
X126631375Y-89309187D01*
X126633801Y-89312716D01*
X126633804Y-89312722D01*
X126671512Y-89367587D01*
X126789424Y-89539149D01*
X126977219Y-89745534D01*
X127191287Y-89924522D01*
X127194928Y-89926806D01*
X127424025Y-90070519D01*
X127424029Y-90070521D01*
X127427665Y-90072802D01*
X127493122Y-90102357D01*
X127678068Y-90185864D01*
X127678072Y-90185866D01*
X127681980Y-90187630D01*
X127686100Y-90188850D01*
X127686099Y-90188850D01*
X127945414Y-90265662D01*
X127945418Y-90265663D01*
X127949527Y-90266880D01*
X127953764Y-90267528D01*
X127953767Y-90267529D01*
X128188011Y-90303374D01*
X128225353Y-90309088D01*
X128367400Y-90311319D01*
X128500065Y-90313404D01*
X128500071Y-90313404D01*
X128504356Y-90313471D01*
X128781372Y-90279948D01*
X129051275Y-90209140D01*
X129309072Y-90102357D01*
X129356628Y-90074568D01*
X129546284Y-89963742D01*
X129546286Y-89963740D01*
X129549992Y-89961575D01*
X129769576Y-89789400D01*
X129809415Y-89748290D01*
X129960778Y-89592094D01*
X129963761Y-89589016D01*
X129966294Y-89585568D01*
X129966298Y-89585563D01*
X130126417Y-89367587D01*
X130128955Y-89364132D01*
X130262100Y-89118909D01*
X130360732Y-88857886D01*
X130423027Y-88585891D01*
X130429104Y-88517806D01*
X130447612Y-88310424D01*
X130447832Y-88307959D01*
X130448282Y-88265000D01*
X130446818Y-88243519D01*
X136505830Y-88243519D01*
X136521893Y-88522094D01*
X136522718Y-88526301D01*
X136522719Y-88526306D01*
X136535230Y-88590075D01*
X136575614Y-88795911D01*
X136577001Y-88799961D01*
X136577002Y-88799966D01*
X136598208Y-88861904D01*
X136665999Y-89059904D01*
X136791375Y-89309187D01*
X136793801Y-89312716D01*
X136793804Y-89312722D01*
X136831512Y-89367587D01*
X136949424Y-89539149D01*
X137137219Y-89745534D01*
X137351287Y-89924522D01*
X137354928Y-89926806D01*
X137584025Y-90070519D01*
X137584029Y-90070521D01*
X137587665Y-90072802D01*
X137653122Y-90102357D01*
X137838068Y-90185864D01*
X137838072Y-90185866D01*
X137841980Y-90187630D01*
X137846100Y-90188850D01*
X137846099Y-90188850D01*
X138105414Y-90265662D01*
X138105418Y-90265663D01*
X138109527Y-90266880D01*
X138113764Y-90267528D01*
X138113767Y-90267529D01*
X138348011Y-90303374D01*
X138385353Y-90309088D01*
X138527400Y-90311319D01*
X138660065Y-90313404D01*
X138660071Y-90313404D01*
X138664356Y-90313471D01*
X138941372Y-90279948D01*
X139211275Y-90209140D01*
X139469072Y-90102357D01*
X139516628Y-90074568D01*
X139706284Y-89963742D01*
X139706286Y-89963740D01*
X139709992Y-89961575D01*
X139929576Y-89789400D01*
X139969415Y-89748290D01*
X140120778Y-89592094D01*
X140123761Y-89589016D01*
X140126294Y-89585568D01*
X140126298Y-89585563D01*
X140286417Y-89367587D01*
X140288955Y-89364132D01*
X140422100Y-89118909D01*
X140520732Y-88857886D01*
X140583027Y-88585891D01*
X140589104Y-88517806D01*
X140607612Y-88310424D01*
X140607832Y-88307959D01*
X140608282Y-88265000D01*
X140606818Y-88243519D01*
X142093830Y-88243519D01*
X142109893Y-88522094D01*
X142110718Y-88526301D01*
X142110719Y-88526306D01*
X142123230Y-88590075D01*
X142163614Y-88795911D01*
X142165001Y-88799961D01*
X142165002Y-88799966D01*
X142186208Y-88861904D01*
X142253999Y-89059904D01*
X142379375Y-89309187D01*
X142381801Y-89312716D01*
X142381804Y-89312722D01*
X142419512Y-89367587D01*
X142537424Y-89539149D01*
X142725219Y-89745534D01*
X142939287Y-89924522D01*
X142942928Y-89926806D01*
X143172025Y-90070519D01*
X143172029Y-90070521D01*
X143175665Y-90072802D01*
X143241122Y-90102357D01*
X143426068Y-90185864D01*
X143426072Y-90185866D01*
X143429980Y-90187630D01*
X143434100Y-90188850D01*
X143434099Y-90188850D01*
X143693414Y-90265662D01*
X143693418Y-90265663D01*
X143697527Y-90266880D01*
X143701764Y-90267528D01*
X143701767Y-90267529D01*
X143936011Y-90303374D01*
X143973353Y-90309088D01*
X144115400Y-90311319D01*
X144248065Y-90313404D01*
X144248071Y-90313404D01*
X144252356Y-90313471D01*
X144529372Y-90279948D01*
X144799275Y-90209140D01*
X145057072Y-90102357D01*
X145104628Y-90074568D01*
X145294284Y-89963742D01*
X145294286Y-89963740D01*
X145297992Y-89961575D01*
X145517576Y-89789400D01*
X145557415Y-89748290D01*
X145708778Y-89592094D01*
X145711761Y-89589016D01*
X145714294Y-89585568D01*
X145714298Y-89585563D01*
X145874417Y-89367587D01*
X145876955Y-89364132D01*
X146010100Y-89118909D01*
X146108732Y-88857886D01*
X146171027Y-88585891D01*
X146177104Y-88517806D01*
X146195612Y-88310424D01*
X146195832Y-88307959D01*
X146196282Y-88265000D01*
X146194818Y-88243519D01*
X152253830Y-88243519D01*
X152269893Y-88522094D01*
X152270718Y-88526301D01*
X152270719Y-88526306D01*
X152283230Y-88590075D01*
X152323614Y-88795911D01*
X152325001Y-88799961D01*
X152325002Y-88799966D01*
X152346208Y-88861904D01*
X152413999Y-89059904D01*
X152539375Y-89309187D01*
X152541801Y-89312716D01*
X152541804Y-89312722D01*
X152579512Y-89367587D01*
X152697424Y-89539149D01*
X152885219Y-89745534D01*
X153099287Y-89924522D01*
X153102928Y-89926806D01*
X153332025Y-90070519D01*
X153332029Y-90070521D01*
X153335665Y-90072802D01*
X153401122Y-90102357D01*
X153586068Y-90185864D01*
X153586072Y-90185866D01*
X153589980Y-90187630D01*
X153594100Y-90188850D01*
X153594099Y-90188850D01*
X153853414Y-90265662D01*
X153853418Y-90265663D01*
X153857527Y-90266880D01*
X153861764Y-90267528D01*
X153861767Y-90267529D01*
X154096011Y-90303374D01*
X154133353Y-90309088D01*
X154275400Y-90311319D01*
X154408065Y-90313404D01*
X154408071Y-90313404D01*
X154412356Y-90313471D01*
X154689372Y-90279948D01*
X154959275Y-90209140D01*
X155217072Y-90102357D01*
X155264628Y-90074568D01*
X155454284Y-89963742D01*
X155454286Y-89963740D01*
X155457992Y-89961575D01*
X155677576Y-89789400D01*
X155717415Y-89748290D01*
X155868778Y-89592094D01*
X155871761Y-89589016D01*
X155874294Y-89585568D01*
X155874298Y-89585563D01*
X156034417Y-89367587D01*
X156036955Y-89364132D01*
X156170100Y-89118909D01*
X156268732Y-88857886D01*
X156331027Y-88585891D01*
X156337104Y-88517806D01*
X156355612Y-88310424D01*
X156355832Y-88307959D01*
X156356282Y-88265000D01*
X156354818Y-88243519D01*
X156337595Y-87990886D01*
X156337594Y-87990880D01*
X156337303Y-87986609D01*
X156280718Y-87713370D01*
X156274888Y-87696904D01*
X156189005Y-87454379D01*
X156187574Y-87450338D01*
X156059593Y-87202381D01*
X155899146Y-86974086D01*
X155896221Y-86970938D01*
X155712120Y-86772823D01*
X155712117Y-86772821D01*
X155709199Y-86769680D01*
X155705884Y-86766966D01*
X155705880Y-86766963D01*
X155496587Y-86595659D01*
X155493269Y-86592943D01*
X155255351Y-86447147D01*
X155237924Y-86439497D01*
X155003775Y-86336712D01*
X155003771Y-86336711D01*
X154999847Y-86334988D01*
X154731486Y-86258543D01*
X154524809Y-86229129D01*
X154459484Y-86219832D01*
X154459482Y-86219832D01*
X154455232Y-86219227D01*
X154308137Y-86218457D01*
X154180485Y-86217788D01*
X154180479Y-86217788D01*
X154176199Y-86217766D01*
X154171955Y-86218325D01*
X154171951Y-86218325D01*
X154050789Y-86234276D01*
X153899549Y-86254187D01*
X153895409Y-86255320D01*
X153895407Y-86255320D01*
X153798933Y-86281713D01*
X153630402Y-86327818D01*
X153373737Y-86437294D01*
X153229136Y-86523836D01*
X153137988Y-86578387D01*
X153137984Y-86578390D01*
X153134306Y-86580591D01*
X152916537Y-86755057D01*
X152724460Y-86957464D01*
X152561630Y-87184065D01*
X152431061Y-87430668D01*
X152429589Y-87434691D01*
X152429587Y-87434695D01*
X152422384Y-87454379D01*
X152335167Y-87692711D01*
X152275723Y-87965343D01*
X152253830Y-88243519D01*
X146194818Y-88243519D01*
X146177595Y-87990886D01*
X146177594Y-87990880D01*
X146177303Y-87986609D01*
X146120718Y-87713370D01*
X146114888Y-87696904D01*
X146029005Y-87454379D01*
X146027574Y-87450338D01*
X145899593Y-87202381D01*
X145739146Y-86974086D01*
X145736221Y-86970938D01*
X145552120Y-86772823D01*
X145552117Y-86772821D01*
X145549199Y-86769680D01*
X145545884Y-86766966D01*
X145545880Y-86766963D01*
X145336587Y-86595659D01*
X145333269Y-86592943D01*
X145095351Y-86447147D01*
X145077924Y-86439497D01*
X144843775Y-86336712D01*
X144843771Y-86336711D01*
X144839847Y-86334988D01*
X144571486Y-86258543D01*
X144364809Y-86229129D01*
X144299484Y-86219832D01*
X144299482Y-86219832D01*
X144295232Y-86219227D01*
X144148137Y-86218457D01*
X144020485Y-86217788D01*
X144020479Y-86217788D01*
X144016199Y-86217766D01*
X144011955Y-86218325D01*
X144011951Y-86218325D01*
X143890789Y-86234276D01*
X143739549Y-86254187D01*
X143735409Y-86255320D01*
X143735407Y-86255320D01*
X143638933Y-86281713D01*
X143470402Y-86327818D01*
X143213737Y-86437294D01*
X143069136Y-86523836D01*
X142977988Y-86578387D01*
X142977984Y-86578390D01*
X142974306Y-86580591D01*
X142756537Y-86755057D01*
X142564460Y-86957464D01*
X142401630Y-87184065D01*
X142271061Y-87430668D01*
X142269589Y-87434691D01*
X142269587Y-87434695D01*
X142262384Y-87454379D01*
X142175167Y-87692711D01*
X142115723Y-87965343D01*
X142093830Y-88243519D01*
X140606818Y-88243519D01*
X140589595Y-87990886D01*
X140589594Y-87990880D01*
X140589303Y-87986609D01*
X140532718Y-87713370D01*
X140526888Y-87696904D01*
X140441005Y-87454379D01*
X140439574Y-87450338D01*
X140311593Y-87202381D01*
X140151146Y-86974086D01*
X140148221Y-86970938D01*
X139964120Y-86772823D01*
X139964117Y-86772821D01*
X139961199Y-86769680D01*
X139957884Y-86766966D01*
X139957880Y-86766963D01*
X139748587Y-86595659D01*
X139745269Y-86592943D01*
X139507351Y-86447147D01*
X139489924Y-86439497D01*
X139255775Y-86336712D01*
X139255771Y-86336711D01*
X139251847Y-86334988D01*
X138983486Y-86258543D01*
X138776809Y-86229129D01*
X138711484Y-86219832D01*
X138711482Y-86219832D01*
X138707232Y-86219227D01*
X138560137Y-86218457D01*
X138432485Y-86217788D01*
X138432479Y-86217788D01*
X138428199Y-86217766D01*
X138423955Y-86218325D01*
X138423951Y-86218325D01*
X138302789Y-86234276D01*
X138151549Y-86254187D01*
X138147409Y-86255320D01*
X138147407Y-86255320D01*
X138050933Y-86281713D01*
X137882402Y-86327818D01*
X137625737Y-86437294D01*
X137481136Y-86523836D01*
X137389988Y-86578387D01*
X137389984Y-86578390D01*
X137386306Y-86580591D01*
X137168537Y-86755057D01*
X136976460Y-86957464D01*
X136813630Y-87184065D01*
X136683061Y-87430668D01*
X136681589Y-87434691D01*
X136681587Y-87434695D01*
X136674384Y-87454379D01*
X136587167Y-87692711D01*
X136527723Y-87965343D01*
X136505830Y-88243519D01*
X130446818Y-88243519D01*
X130429595Y-87990886D01*
X130429594Y-87990880D01*
X130429303Y-87986609D01*
X130372718Y-87713370D01*
X130366888Y-87696904D01*
X130281005Y-87454379D01*
X130279574Y-87450338D01*
X130151593Y-87202381D01*
X129991146Y-86974086D01*
X129988221Y-86970938D01*
X129804120Y-86772823D01*
X129804117Y-86772821D01*
X129801199Y-86769680D01*
X129797884Y-86766966D01*
X129797880Y-86766963D01*
X129588587Y-86595659D01*
X129585269Y-86592943D01*
X129347351Y-86447147D01*
X129329924Y-86439497D01*
X129095775Y-86336712D01*
X129095771Y-86336711D01*
X129091847Y-86334988D01*
X128823486Y-86258543D01*
X128616809Y-86229129D01*
X128551484Y-86219832D01*
X128551482Y-86219832D01*
X128547232Y-86219227D01*
X128400137Y-86218457D01*
X128272485Y-86217788D01*
X128272479Y-86217788D01*
X128268199Y-86217766D01*
X128263955Y-86218325D01*
X128263951Y-86218325D01*
X128142789Y-86234276D01*
X127991549Y-86254187D01*
X127987409Y-86255320D01*
X127987407Y-86255320D01*
X127890933Y-86281713D01*
X127722402Y-86327818D01*
X127465737Y-86437294D01*
X127321136Y-86523836D01*
X127229988Y-86578387D01*
X127229984Y-86578390D01*
X127226306Y-86580591D01*
X127008537Y-86755057D01*
X126816460Y-86957464D01*
X126653630Y-87184065D01*
X126523061Y-87430668D01*
X126521589Y-87434691D01*
X126521587Y-87434695D01*
X126514384Y-87454379D01*
X126427167Y-87692711D01*
X126367723Y-87965343D01*
X126345830Y-88243519D01*
X124858818Y-88243519D01*
X124841595Y-87990886D01*
X124841594Y-87990880D01*
X124841303Y-87986609D01*
X124784718Y-87713370D01*
X124778888Y-87696904D01*
X124693005Y-87454379D01*
X124691574Y-87450338D01*
X124563593Y-87202381D01*
X124403146Y-86974086D01*
X124400221Y-86970938D01*
X124216120Y-86772823D01*
X124216117Y-86772821D01*
X124213199Y-86769680D01*
X124209884Y-86766966D01*
X124209880Y-86766963D01*
X124000587Y-86595659D01*
X123997269Y-86592943D01*
X123759351Y-86447147D01*
X123741924Y-86439497D01*
X123507775Y-86336712D01*
X123507771Y-86336711D01*
X123503847Y-86334988D01*
X123235486Y-86258543D01*
X123028809Y-86229129D01*
X122963484Y-86219832D01*
X122963482Y-86219832D01*
X122959232Y-86219227D01*
X122812137Y-86218457D01*
X122684485Y-86217788D01*
X122684479Y-86217788D01*
X122680199Y-86217766D01*
X122675955Y-86218325D01*
X122675951Y-86218325D01*
X122554789Y-86234276D01*
X122403549Y-86254187D01*
X122399409Y-86255320D01*
X122399407Y-86255320D01*
X122302933Y-86281713D01*
X122134402Y-86327818D01*
X121877737Y-86437294D01*
X121733136Y-86523836D01*
X121641988Y-86578387D01*
X121641984Y-86578390D01*
X121638306Y-86580591D01*
X121420537Y-86755057D01*
X121228460Y-86957464D01*
X121065630Y-87184065D01*
X120935061Y-87430668D01*
X120933589Y-87434691D01*
X120933587Y-87434695D01*
X120926384Y-87454379D01*
X120839167Y-87692711D01*
X120779723Y-87965343D01*
X120757830Y-88243519D01*
X114698818Y-88243519D01*
X114681595Y-87990886D01*
X114681594Y-87990880D01*
X114681303Y-87986609D01*
X114624718Y-87713370D01*
X114618888Y-87696904D01*
X114533005Y-87454379D01*
X114531574Y-87450338D01*
X114403593Y-87202381D01*
X114243146Y-86974086D01*
X114240221Y-86970938D01*
X114056120Y-86772823D01*
X114056117Y-86772821D01*
X114053199Y-86769680D01*
X114049884Y-86766966D01*
X114049880Y-86766963D01*
X113840587Y-86595659D01*
X113837269Y-86592943D01*
X113599351Y-86447147D01*
X113581924Y-86439497D01*
X113347775Y-86336712D01*
X113347771Y-86336711D01*
X113343847Y-86334988D01*
X113075486Y-86258543D01*
X112868809Y-86229129D01*
X112803484Y-86219832D01*
X112803482Y-86219832D01*
X112799232Y-86219227D01*
X112652137Y-86218457D01*
X112524485Y-86217788D01*
X112524479Y-86217788D01*
X112520199Y-86217766D01*
X112515955Y-86218325D01*
X112515951Y-86218325D01*
X112394789Y-86234276D01*
X112243549Y-86254187D01*
X112239409Y-86255320D01*
X112239407Y-86255320D01*
X112142933Y-86281713D01*
X111974402Y-86327818D01*
X111717737Y-86437294D01*
X111573136Y-86523836D01*
X111481988Y-86578387D01*
X111481984Y-86578390D01*
X111478306Y-86580591D01*
X111260537Y-86755057D01*
X111068460Y-86957464D01*
X110905630Y-87184065D01*
X110775061Y-87430668D01*
X110773589Y-87434691D01*
X110773587Y-87434695D01*
X110766384Y-87454379D01*
X110679167Y-87692711D01*
X110619723Y-87965343D01*
X110597830Y-88243519D01*
X108327000Y-88243519D01*
X108327000Y-81025000D01*
X108347002Y-80956879D01*
X108400658Y-80910386D01*
X108453000Y-80899000D01*
X157608000Y-80899000D01*
X157676121Y-80919002D01*
G37*
%TD.AperFunction*%
M02*
